<svg width="56" height="56" viewBox="0 0 56 56" fill="none" xmlns="http://www.w3.org/2000/svg">
<ellipse cx="28" cy="27.7729" rx="28" ry="27.2573" fill="#D9F2E7"/>
<path fill-rule="evenodd" clip-rule="evenodd" d="M13.666 22.181C13.666 18.6832 16.5015 15.8477 19.9993 15.8477H35.9993C39.4972 15.8477 42.3327 18.6832 42.3327 22.181V26.181C42.3327 26.7333 41.885 27.181 41.3327 27.181C40.7804 27.181 40.3327 26.7333 40.3327 26.181V22.181C40.3327 19.7878 38.3926 17.8477 35.9993 17.8477H19.9993C17.6061 17.8477 15.666 19.7878 15.666 22.181V32.8477C15.666 35.2409 17.6061 37.181 19.9993 37.181H33.3327C33.885 37.181 34.3327 37.6287 34.3327 38.181C34.3327 38.7333 33.885 39.181 33.3327 39.181H19.9993C16.5015 39.181 13.666 36.3455 13.666 32.8477V22.181Z" fill="#56C596"/>
<path d="M21.3327 22.181C21.3327 21.4446 20.7357 20.8477 19.9993 20.8477C19.263 20.8477 18.666 21.4446 18.666 22.181C18.666 22.9174 19.263 23.5143 19.9993 23.5143C20.7357 23.5143 21.3327 22.9174 21.3327 22.181Z" fill="#56C596"/>
<path fill-rule="evenodd" clip-rule="evenodd" d="M27.9993 29.181C27.0789 29.181 26.3327 28.4348 26.3327 27.5143C26.3327 26.5938 27.0789 25.8477 27.9993 25.8477C28.9198 25.8477 29.666 26.5938 29.666 27.5143C29.666 28.4348 28.9198 29.181 27.9993 29.181ZM24.3327 27.5143C24.3327 29.5394 25.9743 31.181 27.9993 31.181C30.0244 31.181 31.666 29.5394 31.666 27.5143C31.666 25.4893 30.0244 23.8477 27.9993 23.8477C25.9743 23.8477 24.3327 25.4893 24.3327 27.5143Z" fill="#56C596"/>
<path fill-rule="evenodd" clip-rule="evenodd" d="M37.666 32.0429L36.7065 33.0025C36.3159 33.393 35.6828 33.393 35.2922 33.0025C34.9017 32.612 34.9017 31.9788 35.2922 31.5883L37.0161 29.8644C37.9273 28.9532 39.4047 28.9532 40.3159 29.8644L42.0398 31.5883C42.4303 31.9788 42.4303 32.612 42.0398 33.0025C41.6493 33.393 41.0161 33.393 40.6256 33.0025L39.666 32.0429V38.181C39.666 38.7333 39.2183 39.181 38.666 39.181C38.1137 39.181 37.666 38.7333 37.666 38.181V32.0429Z" fill="#56C596"/>
</svg>
