<svg width="56" height="55" viewBox="0 0 56 55" fill="none" xmlns="http://www.w3.org/2000/svg">
<ellipse cx="28" cy="27.2573" rx="28" ry="27.2573" fill="#D9F2E7"/>
<path fill-rule="evenodd" clip-rule="evenodd" d="M13.666 18.9987C13.666 16.9737 15.3076 15.332 17.3327 15.332H35.9993C38.0244 15.332 39.666 16.9737 39.666 18.9987V26.9987H37.666V18.9987C37.666 18.0782 36.9198 17.332 35.9993 17.332H17.3327C16.4122 17.332 15.666 18.0782 15.666 18.9987V32.332C15.666 33.2525 16.4122 33.9987 17.3327 33.9987H27.9993V35.9987H17.3327C15.3076 35.9987 13.666 34.3571 13.666 32.332V18.9987Z" fill="#56C596"/>
<path fill-rule="evenodd" clip-rule="evenodd" d="M27 34.9987C27 32.9737 28.6416 31.332 30.6667 31.332H38.6667C40.6917 31.332 42.3333 32.9737 42.3333 34.9987C42.3333 37.0237 40.6917 38.6654 38.6667 38.6654H30.6667C28.6416 38.6654 27 37.0237 27 34.9987ZM30.6667 33.332C29.7462 33.332 29 34.0782 29 34.9987C29 35.9192 29.7462 36.6654 30.6667 36.6654H38.6667C39.5871 36.6654 40.3333 35.9192 40.3333 34.9987C40.3333 34.0782 39.5871 33.332 38.6667 33.332H30.6667Z" fill="#56C596"/>
<path fill-rule="evenodd" clip-rule="evenodd" d="M27 29.6667C27 27.6416 28.6416 26 30.6667 26H38.6667C40.6917 26 42.3333 27.6416 42.3333 29.6667C42.3333 31.6917 40.6917 33.3333 38.6667 33.3333H30.6667C28.6416 33.3333 27 31.6917 27 29.6667ZM30.6667 28C29.7462 28 29 28.7462 29 29.6667C29 30.5871 29.7462 31.3333 30.6667 31.3333H38.6667C39.5871 31.3333 40.3333 30.5871 40.3333 29.6667C40.3333 28.7462 39.5871 28 38.6667 28H30.6667Z" fill="#56C596"/>
</svg>
