<svg width="56" height="56" viewBox="0 0 56 56" fill="none" xmlns="http://www.w3.org/2000/svg">
<path d="M56 28C56 43.464 43.464 56 28 56C12.536 56 0 43.464 0 28C0 12.536 12.536 0 28 0C43.464 0 56 12.536 56 28Z" fill="#6DB624" fill-opacity="0.15"/>
<path d="M23.842 18.0187C23.842 17.0035 23.4388 16.0301 22.7209 15.3125C22.0034 14.5946 21.03 14.1914 20.0148 14.1914C18.9995 14.1914 18.0262 14.5946 17.3086 15.3125C16.5907 16.03 16.1875 17.0035 16.1875 18.0187C16.1875 19.0339 16.5907 20.0072 17.3086 20.7249C18.0261 21.4427 18.9995 21.8459 20.0148 21.8459C21.0294 21.8447 22.0024 21.4412 22.7197 20.7236C23.4373 20.0063 23.8408 19.0333 23.842 18.0187V18.0187ZM17.281 18.0187C17.281 17.2937 17.569 16.5984 18.0816 16.0855C18.5944 15.5729 19.2898 15.2849 20.0148 15.2849C20.7397 15.2849 21.4351 15.5729 21.9479 16.0855C22.4605 16.5983 22.7485 17.2937 22.7485 18.0187C22.7485 18.7436 22.4605 19.439 21.9479 19.9518C21.4351 20.4644 20.7397 20.7524 20.0148 20.7524C19.29 20.7514 18.5951 20.4632 18.0826 19.9508C17.5702 19.4383 17.282 18.7434 17.281 18.0187Z" fill="#6DB624"/>
<path d="M36.4171 16.3768C34.7231 16.3746 33.107 17.0878 31.9671 18.3407C30.827 19.5936 30.2688 21.2695 30.4304 22.9556C30.5917 24.6417 31.4575 26.1815 32.8146 27.1954L28.1999 29.9641L20.561 25.8903V24.0036C22.636 23.8142 24.4651 22.5642 25.3956 20.6999C26.326 18.8356 26.2252 16.6224 25.129 14.8504C24.0331 13.0784 22.0977 12 20.0143 12C17.9308 12 15.9954 13.0784 14.8995 14.8504C13.8033 16.6224 13.7025 18.8356 14.633 20.6999C15.5634 22.5642 17.3926 23.8142 19.4675 24.0036V26.2184C19.4675 26.4202 19.5788 26.6055 19.7568 26.7007L27.6687 30.9204V34.5202C27.4937 34.4555 27.3087 34.4213 27.122 34.4196H26.5369C26.1761 31.8433 23.2942 30.793 21.7223 30.5967C21.5666 30.5772 21.4101 30.6255 21.2927 30.7293C21.1751 30.833 21.1077 30.9824 21.1077 31.1391C21.1077 34.1025 21.8441 35.5131 26.0285 35.5131H27.122C27.2669 35.5131 27.4061 35.5707 27.5086 35.6732C27.6111 35.7757 27.6687 35.9148 27.6687 36.0598V38.3064C27.1366 38.4155 26.6489 38.6803 26.2677 39.0675C25.8864 39.4543 25.6289 39.9459 25.5276 40.4798C24.9005 40.5977 24.3345 40.9306 23.9269 41.4214C23.519 41.912 23.2956 42.5295 23.2947 43.1676C23.2947 43.3126 23.3523 43.4517 23.4548 43.5542C23.5573 43.6567 23.6965 43.7143 23.8415 43.7143H32.5895C32.7344 43.7143 32.8736 43.6567 32.9761 43.5542C33.0786 43.4517 33.1362 43.3126 33.1362 43.1676C33.1352 42.5295 32.9119 41.912 32.504 41.4214C32.0964 40.9306 31.5304 40.5976 30.9033 40.4798C30.8021 39.9459 30.5445 39.4544 30.1633 39.0675C29.782 38.6803 29.2943 38.4155 28.7622 38.3064V30.9018L33.8753 27.8339C35.5273 28.6055 37.4402 28.5857 39.0758 27.7797C40.7114 26.974 41.8928 25.4694 42.2874 23.6893C42.6824 21.9095 42.2479 20.0463 41.1066 18.6245C39.965 17.2027 38.2401 16.3761 36.4167 16.3767L36.4171 16.3768ZM15.0938 18.0171C15.0938 16.7119 15.6122 15.4603 16.5351 14.5376C17.4578 13.6147 18.7094 13.0963 20.0146 13.0963C21.3197 13.0963 22.5713 13.6148 23.494 14.5376C24.4169 15.4603 24.9353 16.7119 24.9353 18.0171C24.9353 19.3222 24.4169 20.5739 23.494 21.4965C22.5713 22.4194 21.3197 22.9378 20.0146 22.9378C18.7099 22.9364 17.4592 22.4174 16.5366 21.495C15.6142 20.5724 15.0953 19.3217 15.0938 18.0171V18.0171ZM22.2128 31.8039C23.2138 32.0483 25.085 32.7246 25.4271 34.4103C22.783 34.3217 22.2872 33.5994 22.2128 31.8039V31.8039ZM29.8561 40.9806C29.8561 41.1256 29.9137 41.2647 30.0162 41.3672C30.1187 41.4697 30.2578 41.5273 30.4028 41.5273C30.7418 41.5278 31.0726 41.633 31.3496 41.8288C31.6264 42.0245 31.8361 42.3013 31.9496 42.6208H24.4819C24.5954 42.3013 24.8051 42.0245 25.0818 41.8288C25.3589 41.633 25.6896 41.5278 26.0286 41.5273C26.1736 41.5273 26.3127 41.4697 26.4153 41.3672C26.5178 41.2647 26.5754 41.1256 26.5754 40.9806C26.5754 40.3945 26.8881 39.8531 27.3955 39.56C27.903 39.2671 28.5283 39.2671 29.0358 39.56C29.5432 39.8532 29.8559 40.3945 29.8559 40.9806H29.8561ZM36.4171 27.3118C35.1119 27.3118 33.8603 26.7934 32.9376 25.8705C32.0147 24.9479 31.4963 23.6962 31.4963 22.3911C31.4963 21.0859 32.0147 19.8343 32.9376 18.9116C33.8603 17.9887 35.1119 17.4703 36.4171 17.4703C37.7222 17.4703 38.9739 17.9888 39.8965 18.9116C40.8194 19.8343 41.3378 21.0859 41.3378 22.3911C41.3363 23.6957 40.8174 24.9464 39.895 25.869C38.9723 26.7914 37.7217 27.3103 36.4171 27.3118Z" fill="#6DB624"/>
<path d="M36.4171 18.5645C35.402 18.5645 34.4285 18.9677 33.7109 19.6855C32.9931 20.4031 32.5898 21.3765 32.5898 22.3917C32.5898 23.4069 32.9931 24.3803 33.7109 25.0979C34.4285 25.8157 35.4019 26.219 36.4171 26.219C37.4323 26.219 38.4056 25.8157 39.1233 25.0979C39.8411 24.3803 40.2443 23.4069 40.2443 22.3917C40.2431 21.3771 39.8397 20.4041 39.122 19.6868C38.4047 18.9692 37.4317 18.5657 36.4171 18.5645ZM36.4171 25.1255C35.6921 25.1255 34.9968 24.8374 34.4839 24.3249C33.9713 23.8121 33.6833 23.1167 33.6833 22.3917C33.6833 21.6667 33.9714 20.9714 34.4839 20.4585C34.9967 19.9459 35.6921 19.658 36.4171 19.658C37.1421 19.658 37.8374 19.946 38.3503 20.4585C38.8629 20.9713 39.1508 21.6667 39.1508 22.3917C39.1499 23.1164 38.8616 23.8113 38.3493 24.3239C37.8367 24.8362 37.1418 25.1245 36.4171 25.1255Z" fill="#6DB624"/>
<path d="M17.1206 26.3809C17.0696 26.3299 17.0091 26.2894 16.9424 26.2621C16.8087 26.2069 16.6583 26.2069 16.5246 26.2621C16.4579 26.2894 16.3974 26.3299 16.3464 26.3809L14.1594 28.5679C13.9522 28.7823 13.9551 29.1235 14.166 29.3344C14.3769 29.5453 14.7181 29.5482 14.9324 29.341L16.1868 28.0866V33.3279C16.1868 33.6298 16.4316 33.8746 16.7335 33.8746C17.0354 33.8746 17.2803 33.6298 17.2803 33.3279V28.0866L18.5338 29.3402V29.3405C18.7484 29.5477 19.0894 29.5445 19.3003 29.3336C19.5112 29.1228 19.5144 28.7818 19.3071 28.5672L17.1206 26.3809Z" fill="#6DB624"/>
<path d="M16.7343 34.9648C16.4323 34.9648 16.1875 35.2097 16.1875 35.5116V36.6051C16.1875 36.907 16.4323 37.1518 16.7343 37.1518C17.0362 37.1518 17.281 36.907 17.281 36.6051V35.5116C17.281 35.3666 17.2234 35.2275 17.1209 35.125C17.0184 35.0224 16.8792 34.9648 16.7343 34.9648Z" fill="#6DB624"/>
<path d="M36.8043 30.752C36.7533 30.701 36.6928 30.6605 36.6262 30.6332C36.4924 30.578 36.342 30.578 36.2083 30.6332C36.1416 30.6605 36.0811 30.701 36.0301 30.752L34.3898 32.3923C34.1826 32.6066 34.1855 32.9478 34.3964 33.1587C34.6073 33.3697 34.9486 33.3726 35.1629 33.1653L35.8705 32.4577V35.512C35.8705 35.8139 36.1153 36.0587 36.4172 36.0587C36.7192 36.0587 36.964 35.8139 36.964 35.512V32.4577L37.6708 33.1646V33.1648C37.8854 33.372 38.2264 33.3689 38.4373 33.158C38.6482 32.9471 38.6513 32.6061 38.4441 32.3915L36.8043 30.752Z" fill="#6DB624"/>
<path d="M36.4178 37.1543C36.1159 37.1543 35.8711 37.3991 35.8711 37.701V38.7945C35.8711 39.0965 36.1159 39.3413 36.4178 39.3413C36.7198 39.3413 36.9646 39.0965 36.9646 38.7945V37.701C36.9646 37.5561 36.907 37.4169 36.8045 37.3144C36.702 37.2119 36.5628 37.1543 36.4178 37.1543Z" fill="#6DB624"/>
</svg>
