<svg width="765" height="376" viewBox="0 0 765 376" fill="none" xmlns="http://www.w3.org/2000/svg">
<path d="M678.624 200L681.872 188.168H684L687.224 200H685.816L682.928 189.056H682.944L680.032 200H678.624ZM680.304 196.872V195.672H685.568V196.872H680.304ZM694.492 199.48C694.95 199.517 695.353 199.603 695.7 199.736C696.052 199.864 696.326 200.053 696.524 200.304C696.721 200.56 696.82 200.893 696.82 201.304C696.82 201.757 696.665 202.157 696.356 202.504C696.046 202.856 695.577 203.131 694.948 203.328C694.318 203.525 693.526 203.624 692.572 203.624C691.222 203.624 690.204 203.427 689.516 203.032C688.828 202.643 688.484 202.109 688.484 201.432C688.484 201.219 688.508 201.029 688.556 200.864C688.609 200.704 688.668 200.573 688.732 200.472L690.028 200.664C689.985 200.723 689.942 200.811 689.9 200.928C689.862 201.051 689.844 201.192 689.844 201.352C689.844 201.779 690.086 202.077 690.572 202.248C691.057 202.424 691.745 202.512 692.636 202.512C693.302 202.512 693.849 202.467 694.276 202.376C694.702 202.285 695.02 202.155 695.228 201.984C695.436 201.813 695.54 201.613 695.54 201.384C695.54 201.037 695.393 200.821 695.1 200.736C694.812 200.656 694.454 200.6 694.028 200.568L690.796 200.328C690.257 200.285 689.817 200.12 689.476 199.832C689.14 199.539 688.972 199.184 688.972 198.768C688.972 198.512 689.033 198.269 689.156 198.04C689.284 197.811 689.43 197.619 689.596 197.464C689.766 197.304 689.918 197.208 690.052 197.176L691.124 197.664C690.99 197.685 690.825 197.779 690.628 197.944C690.436 198.104 690.34 198.293 690.34 198.512C690.34 198.709 690.417 198.872 690.572 199C690.726 199.123 691.033 199.203 691.492 199.24L694.492 199.48ZM695.668 191.504H696.948L696.42 194.848C696.324 195.472 696.124 196.037 695.82 196.544C695.516 197.045 695.1 197.445 694.572 197.744C694.049 198.037 693.401 198.184 692.628 198.184C691.822 198.184 691.134 198.037 690.564 197.744C689.993 197.451 689.556 197.051 689.252 196.544C688.948 196.032 688.796 195.456 688.796 194.816C688.796 194.165 688.953 193.581 689.268 193.064C689.588 192.541 690.03 192.131 690.596 191.832C691.161 191.528 691.809 191.376 692.54 191.376C693.196 191.376 693.769 191.491 694.26 191.72C694.75 191.944 695.137 192.227 695.42 192.568C695.708 192.909 695.868 193.253 695.9 193.6L695.388 193.632L695.668 191.504ZM692.62 196.968C693.137 196.968 693.58 196.883 693.948 196.712C694.321 196.541 694.606 196.293 694.804 195.968C695.006 195.643 695.108 195.248 695.108 194.784C695.108 194.336 695.006 193.949 694.804 193.624C694.606 193.293 694.321 193.04 693.948 192.864C693.58 192.683 693.14 192.592 692.628 192.592C692.137 192.592 691.702 192.685 691.324 192.872C690.95 193.053 690.657 193.309 690.444 193.64C690.236 193.971 690.132 194.36 690.132 194.808C690.132 195.261 690.23 195.651 690.428 195.976C690.63 196.296 690.916 196.541 691.284 196.712C691.657 196.883 692.102 196.968 692.62 196.968ZM704.242 199.48C704.7 199.517 705.103 199.603 705.45 199.736C705.802 199.864 706.076 200.053 706.274 200.304C706.471 200.56 706.57 200.893 706.57 201.304C706.57 201.757 706.415 202.157 706.106 202.504C705.796 202.856 705.327 203.131 704.698 203.328C704.068 203.525 703.276 203.624 702.322 203.624C700.972 203.624 699.954 203.427 699.266 203.032C698.578 202.643 698.234 202.109 698.234 201.432C698.234 201.219 698.258 201.029 698.306 200.864C698.359 200.704 698.418 200.573 698.482 200.472L699.778 200.664C699.735 200.723 699.692 200.811 699.65 200.928C699.612 201.051 699.594 201.192 699.594 201.352C699.594 201.779 699.836 202.077 700.322 202.248C700.807 202.424 701.495 202.512 702.386 202.512C703.052 202.512 703.599 202.467 704.026 202.376C704.452 202.285 704.77 202.155 704.978 201.984C705.186 201.813 705.29 201.613 705.29 201.384C705.29 201.037 705.143 200.821 704.85 200.736C704.562 200.656 704.204 200.6 703.778 200.568L700.546 200.328C700.007 200.285 699.567 200.12 699.226 199.832C698.89 199.539 698.722 199.184 698.722 198.768C698.722 198.512 698.783 198.269 698.906 198.04C699.034 197.811 699.18 197.619 699.346 197.464C699.516 197.304 699.668 197.208 699.802 197.176L700.874 197.664C700.74 197.685 700.575 197.779 700.378 197.944C700.186 198.104 700.09 198.293 700.09 198.512C700.09 198.709 700.167 198.872 700.322 199C700.476 199.123 700.783 199.203 701.242 199.24L704.242 199.48ZM705.418 191.504H706.698L706.17 194.848C706.074 195.472 705.874 196.037 705.57 196.544C705.266 197.045 704.85 197.445 704.322 197.744C703.799 198.037 703.151 198.184 702.378 198.184C701.572 198.184 700.884 198.037 700.314 197.744C699.743 197.451 699.306 197.051 699.002 196.544C698.698 196.032 698.546 195.456 698.546 194.816C698.546 194.165 698.703 193.581 699.018 193.064C699.338 192.541 699.78 192.131 700.346 191.832C700.911 191.528 701.559 191.376 702.29 191.376C702.946 191.376 703.519 191.491 704.01 191.72C704.5 191.944 704.887 192.227 705.17 192.568C705.458 192.909 705.618 193.253 705.65 193.6L705.138 193.632L705.418 191.504ZM702.37 196.968C702.887 196.968 703.33 196.883 703.698 196.712C704.071 196.541 704.356 196.293 704.554 195.968C704.756 195.643 704.858 195.248 704.858 194.784C704.858 194.336 704.756 193.949 704.554 193.624C704.356 193.293 704.071 193.04 703.698 192.864C703.33 192.683 702.89 192.592 702.378 192.592C701.887 192.592 701.452 192.685 701.074 192.872C700.7 193.053 700.407 193.309 700.194 193.64C699.986 193.971 699.882 194.36 699.882 194.808C699.882 195.261 699.98 195.651 700.178 195.976C700.38 196.296 700.666 196.541 701.034 196.712C701.407 196.883 701.852 196.968 702.37 196.968ZM708.568 200V191.504H709.928V194.112L709.48 193.952C709.512 193.637 709.592 193.328 709.72 193.024C709.848 192.715 710.024 192.437 710.248 192.192C710.477 191.941 710.762 191.744 711.104 191.6C711.445 191.451 711.845 191.376 712.304 191.376C712.645 191.376 712.922 191.405 713.136 191.464C713.354 191.517 713.49 191.56 713.544 191.592L713.192 192.928C713.138 192.891 713.029 192.843 712.864 192.784C712.704 192.725 712.474 192.696 712.176 192.696C711.733 192.696 711.365 192.776 711.072 192.936C710.784 193.096 710.554 193.309 710.384 193.576C710.218 193.837 710.101 194.123 710.032 194.432C709.962 194.741 709.928 195.048 709.928 195.352V200H708.568ZM715.289 196.296V195.08H721.857L721.617 195.48C721.617 195.448 721.617 195.419 721.617 195.392C721.617 195.36 721.617 195.331 721.617 195.304C721.617 194.813 721.513 194.365 721.305 193.96C721.102 193.549 720.798 193.221 720.393 192.976C719.988 192.731 719.486 192.608 718.889 192.608C718.286 192.608 717.756 192.736 717.297 192.992C716.838 193.248 716.481 193.611 716.225 194.08C715.969 194.544 715.841 195.099 715.841 195.744C715.841 196.4 715.964 196.965 716.209 197.44C716.46 197.915 716.814 198.28 717.273 198.536C717.732 198.792 718.276 198.92 718.905 198.92C719.353 198.92 719.742 198.875 720.073 198.784C720.404 198.688 720.676 198.563 720.889 198.408C721.108 198.248 721.273 198.075 721.385 197.888C721.497 197.701 721.564 197.515 721.585 197.328H722.945C722.918 197.669 722.812 198.008 722.625 198.344C722.438 198.68 722.174 198.987 721.833 199.264C721.492 199.536 721.073 199.755 720.577 199.92C720.081 200.085 719.51 200.168 718.865 200.168C718.012 200.168 717.26 199.981 716.609 199.608C715.958 199.235 715.446 198.717 715.073 198.056C714.705 197.395 714.521 196.635 714.521 195.776C714.521 194.907 714.708 194.144 715.081 193.488C715.454 192.827 715.969 192.309 716.625 191.936C717.281 191.563 718.03 191.376 718.873 191.376C719.732 191.376 720.476 191.563 721.105 191.936C721.734 192.309 722.22 192.821 722.561 193.472C722.902 194.117 723.073 194.853 723.073 195.68C723.073 195.765 723.07 195.877 723.065 196.016C723.06 196.155 723.052 196.248 723.041 196.296H715.289ZM728.441 200.16C727.929 200.16 727.454 200.107 727.017 200C726.585 199.888 726.206 199.728 725.881 199.52C725.561 199.307 725.31 199.045 725.129 198.736C724.953 198.427 724.865 198.072 724.865 197.672C724.865 197.629 724.865 197.587 724.865 197.544C724.865 197.496 724.865 197.456 724.865 197.424H726.233C726.233 197.456 726.233 197.483 726.233 197.504C726.233 197.525 726.233 197.557 726.233 197.6C726.233 198.032 726.433 198.363 726.833 198.592C727.233 198.816 727.779 198.928 728.473 198.928C728.899 198.928 729.281 198.885 729.617 198.8C729.953 198.715 730.217 198.584 730.409 198.408C730.606 198.232 730.705 198.011 730.705 197.744C730.705 197.301 730.497 196.987 730.081 196.8C729.67 196.608 729.054 196.443 728.233 196.304C727.801 196.229 727.39 196.133 727.001 196.016C726.611 195.893 726.265 195.736 725.961 195.544C725.662 195.352 725.425 195.115 725.249 194.832C725.078 194.544 724.993 194.2 724.993 193.8C724.993 193.283 725.145 192.845 725.449 192.488C725.758 192.125 726.174 191.851 726.697 191.664C727.219 191.472 727.801 191.376 728.441 191.376C729.059 191.376 729.63 191.475 730.153 191.672C730.675 191.869 731.094 192.157 731.409 192.536C731.729 192.909 731.889 193.371 731.889 193.92C731.889 193.941 731.889 193.968 731.889 194C731.889 194.027 731.889 194.053 731.889 194.08H730.529C730.529 194.053 730.529 194.032 730.529 194.016C730.529 194 730.529 193.981 730.529 193.96C730.529 193.651 730.43 193.397 730.233 193.2C730.035 192.997 729.779 192.848 729.465 192.752C729.15 192.651 728.814 192.6 728.457 192.6C728.121 192.6 727.79 192.637 727.465 192.712C727.139 192.781 726.87 192.899 726.657 193.064C726.443 193.229 726.337 193.456 726.337 193.744C726.337 194.032 726.435 194.264 726.633 194.44C726.835 194.611 727.118 194.752 727.481 194.864C727.849 194.971 728.281 195.069 728.777 195.16C729.219 195.24 729.638 195.341 730.033 195.464C730.427 195.581 730.774 195.733 731.073 195.92C731.377 196.107 731.614 196.344 731.785 196.632C731.961 196.915 732.049 197.261 732.049 197.672C732.049 198.088 731.953 198.451 731.761 198.76C731.574 199.069 731.313 199.328 730.977 199.536C730.646 199.744 730.262 199.899 729.825 200C729.393 200.107 728.931 200.16 728.441 200.16ZM737.41 200.16C736.898 200.16 736.423 200.107 735.986 200C735.554 199.888 735.175 199.728 734.85 199.52C734.53 199.307 734.279 199.045 734.098 198.736C733.922 198.427 733.834 198.072 733.834 197.672C733.834 197.629 733.834 197.587 733.834 197.544C733.834 197.496 733.834 197.456 733.834 197.424H735.202C735.202 197.456 735.202 197.483 735.202 197.504C735.202 197.525 735.202 197.557 735.202 197.6C735.202 198.032 735.402 198.363 735.802 198.592C736.202 198.816 736.748 198.928 737.442 198.928C737.868 198.928 738.25 198.885 738.586 198.8C738.922 198.715 739.186 198.584 739.378 198.408C739.575 198.232 739.674 198.011 739.674 197.744C739.674 197.301 739.466 196.987 739.05 196.8C738.639 196.608 738.023 196.443 737.202 196.304C736.77 196.229 736.359 196.133 735.97 196.016C735.58 195.893 735.234 195.736 734.93 195.544C734.631 195.352 734.394 195.115 734.218 194.832C734.047 194.544 733.962 194.2 733.962 193.8C733.962 193.283 734.114 192.845 734.418 192.488C734.727 192.125 735.143 191.851 735.666 191.664C736.188 191.472 736.77 191.376 737.41 191.376C738.028 191.376 738.599 191.475 739.122 191.672C739.644 191.869 740.063 192.157 740.378 192.536C740.698 192.909 740.858 193.371 740.858 193.92C740.858 193.941 740.858 193.968 740.858 194C740.858 194.027 740.858 194.053 740.858 194.08H739.498C739.498 194.053 739.498 194.032 739.498 194.016C739.498 194 739.498 193.981 739.498 193.96C739.498 193.651 739.399 193.397 739.202 193.2C739.004 192.997 738.748 192.848 738.434 192.752C738.119 192.651 737.783 192.6 737.426 192.6C737.09 192.6 736.759 192.637 736.434 192.712C736.108 192.781 735.839 192.899 735.626 193.064C735.412 193.229 735.306 193.456 735.306 193.744C735.306 194.032 735.404 194.264 735.602 194.44C735.804 194.611 736.087 194.752 736.45 194.864C736.818 194.971 737.25 195.069 737.746 195.16C738.188 195.24 738.607 195.341 739.002 195.464C739.396 195.581 739.743 195.733 740.042 195.92C740.346 196.107 740.583 196.344 740.754 196.632C740.93 196.915 741.017 197.261 741.017 197.672C741.017 198.088 740.922 198.451 740.73 198.76C740.543 199.069 740.282 199.328 739.946 199.536C739.615 199.744 739.231 199.899 738.794 200C738.362 200.107 737.9 200.16 737.41 200.16ZM743.21 200V191.504H744.554V200H743.21ZM743.89 189.552C743.64 189.552 743.421 189.483 743.234 189.344C743.053 189.2 742.962 189.005 742.962 188.76C742.962 188.52 743.053 188.331 743.234 188.192C743.421 188.048 743.64 187.976 743.89 187.976C744.141 187.976 744.357 188.048 744.538 188.192C744.72 188.331 744.81 188.52 744.81 188.76C744.81 189.005 744.72 189.2 744.538 189.344C744.357 189.483 744.141 189.552 743.89 189.552ZM753.875 191.504L751.027 200H749.243L746.331 191.504H747.739L750.243 199.28H750.027L752.467 191.504H753.875ZM755.539 196.296V195.08H762.107L761.867 195.48C761.867 195.448 761.867 195.419 761.867 195.392C761.867 195.36 761.867 195.331 761.867 195.304C761.867 194.813 761.763 194.365 761.555 193.96C761.352 193.549 761.048 193.221 760.643 192.976C760.238 192.731 759.736 192.608 759.139 192.608C758.536 192.608 758.006 192.736 757.547 192.992C757.088 193.248 756.731 193.611 756.475 194.08C756.219 194.544 756.091 195.099 756.091 195.744C756.091 196.4 756.214 196.965 756.459 197.44C756.71 197.915 757.064 198.28 757.523 198.536C757.982 198.792 758.526 198.92 759.155 198.92C759.603 198.92 759.992 198.875 760.323 198.784C760.654 198.688 760.926 198.563 761.139 198.408C761.358 198.248 761.523 198.075 761.635 197.888C761.747 197.701 761.814 197.515 761.835 197.328H763.195C763.168 197.669 763.062 198.008 762.875 198.344C762.688 198.68 762.424 198.987 762.083 199.264C761.742 199.536 761.323 199.755 760.827 199.92C760.331 200.085 759.76 200.168 759.115 200.168C758.262 200.168 757.51 199.981 756.859 199.608C756.208 199.235 755.696 198.717 755.323 198.056C754.955 197.395 754.771 196.635 754.771 195.776C754.771 194.907 754.958 194.144 755.331 193.488C755.704 192.827 756.219 192.309 756.875 191.936C757.531 191.563 758.28 191.376 759.123 191.376C759.982 191.376 760.726 191.563 761.355 191.936C761.984 192.309 762.47 192.821 762.811 193.472C763.152 194.117 763.323 194.853 763.323 195.68C763.323 195.765 763.32 195.877 763.315 196.016C763.31 196.155 763.302 196.248 763.291 196.296H755.539Z" fill="black"/>
<path d="M362.408 4.2H364.76V16H363.464V5.288L363.504 5.304L360.496 16H358.544L355.52 5.296L355.56 5.28V16H354.264V4.2H356.616L359.512 14.904H359.496L362.408 4.2ZM371.279 16.152C370.426 16.152 369.671 15.9627 369.015 15.584C368.365 15.2 367.853 14.6773 367.479 14.016C367.111 13.3493 366.927 12.592 366.927 11.744C366.927 10.896 367.111 10.144 367.479 9.488C367.853 8.832 368.365 8.31733 369.015 7.944C369.671 7.57067 370.426 7.384 371.279 7.384C372.133 7.384 372.885 7.57067 373.535 7.944C374.191 8.31733 374.703 8.832 375.071 9.488C375.445 10.144 375.631 10.896 375.631 11.744C375.631 12.592 375.445 13.3493 375.071 14.016C374.703 14.6773 374.191 15.2 373.535 15.584C372.885 15.9627 372.133 16.152 371.279 16.152ZM371.279 14.904C371.866 14.904 372.383 14.7733 372.831 14.512C373.279 14.2507 373.629 13.8827 373.879 13.408C374.135 12.9333 374.263 12.3787 374.263 11.744C374.263 11.1093 374.135 10.56 373.879 10.096C373.629 9.62667 373.279 9.26667 372.831 9.016C372.383 8.76 371.866 8.632 371.279 8.632C370.698 8.632 370.181 8.76 369.727 9.016C369.279 9.26667 368.927 9.62667 368.671 10.096C368.421 10.56 368.295 11.1093 368.295 11.744C368.295 12.3787 368.421 12.9333 368.671 13.408C368.927 13.8827 369.279 14.2507 369.727 14.512C370.181 14.7733 370.698 14.904 371.279 14.904ZM381.259 16.16C380.561 16.16 379.921 15.992 379.339 15.656C378.758 15.3147 378.294 14.816 377.947 14.16C377.601 13.4987 377.427 12.6933 377.427 11.744C377.427 10.8107 377.603 10.0187 377.955 9.368C378.307 8.71733 378.774 8.224 379.355 7.888C379.937 7.54667 380.571 7.376 381.259 7.376C381.915 7.376 382.529 7.53333 383.099 7.848C383.675 8.15733 384.139 8.58933 384.491 9.144C384.843 9.69867 385.019 10.3413 385.019 11.072C385.019 11.088 385.019 11.104 385.019 11.12C385.019 11.136 385.019 11.152 385.019 11.168L384.043 11.208C384.043 11.192 384.043 11.176 384.043 11.16C384.043 11.1387 384.043 11.12 384.043 11.104C384.043 10.64 383.921 10.2213 383.675 9.848C383.435 9.47467 383.118 9.17867 382.723 8.96C382.329 8.736 381.905 8.624 381.451 8.624C380.694 8.624 380.067 8.88 379.571 9.392C379.075 9.89867 378.827 10.6827 378.827 11.744C378.827 12.8 379.075 13.5867 379.571 14.104C380.073 14.616 380.699 14.872 381.451 14.872C381.926 14.872 382.358 14.7573 382.747 14.528C383.142 14.2987 383.457 13.992 383.691 13.608C383.926 13.2187 384.043 12.784 384.043 12.304L385.019 12.328C385.019 13.0533 384.851 13.7067 384.515 14.288C384.179 14.864 383.726 15.32 383.155 15.656C382.59 15.992 381.958 16.16 381.259 16.16ZM384.043 16V3.496H385.411V16H384.043ZM388.242 12.296V11.08H394.81L394.57 11.48C394.57 11.448 394.57 11.4187 394.57 11.392C394.57 11.36 394.57 11.3307 394.57 11.304C394.57 10.8133 394.466 10.3653 394.258 9.96C394.055 9.54933 393.751 9.22133 393.346 8.976C392.941 8.73067 392.439 8.608 391.842 8.608C391.239 8.608 390.709 8.736 390.25 8.992C389.791 9.248 389.434 9.61067 389.178 10.08C388.922 10.544 388.794 11.0987 388.794 11.744C388.794 12.4 388.917 12.9653 389.162 13.44C389.413 13.9147 389.767 14.28 390.226 14.536C390.685 14.792 391.229 14.92 391.858 14.92C392.306 14.92 392.695 14.8747 393.026 14.784C393.357 14.688 393.629 14.5627 393.842 14.408C394.061 14.248 394.226 14.0747 394.338 13.888C394.45 13.7013 394.517 13.5147 394.538 13.328H395.898C395.871 13.6693 395.765 14.008 395.578 14.344C395.391 14.68 395.127 14.9867 394.786 15.264C394.445 15.536 394.026 15.7547 393.53 15.92C393.034 16.0853 392.463 16.168 391.818 16.168C390.965 16.168 390.213 15.9813 389.562 15.608C388.911 15.2347 388.399 14.7173 388.026 14.056C387.658 13.3947 387.474 12.6347 387.474 11.776C387.474 10.9067 387.661 10.144 388.034 9.488C388.407 8.82667 388.922 8.30933 389.578 7.936C390.234 7.56267 390.983 7.376 391.826 7.376C392.685 7.376 393.429 7.56267 394.058 7.936C394.687 8.30933 395.173 8.82133 395.514 9.472C395.855 10.1173 396.026 10.8533 396.026 11.68C396.026 11.7653 396.023 11.8773 396.018 12.016C396.013 12.1547 396.005 12.248 395.994 12.296H388.242ZM398.146 16V7.504H399.506V10.112L399.058 9.952C399.09 9.63733 399.17 9.328 399.298 9.024C399.426 8.71467 399.602 8.43733 399.826 8.192C400.055 7.94133 400.341 7.744 400.682 7.6C401.023 7.45067 401.423 7.376 401.882 7.376C402.223 7.376 402.501 7.40533 402.714 7.464C402.933 7.51733 403.069 7.56 403.122 7.592L402.77 8.928C402.717 8.89067 402.607 8.84267 402.442 8.784C402.282 8.72533 402.053 8.696 401.754 8.696C401.311 8.696 400.943 8.776 400.65 8.936C400.362 9.096 400.133 9.30933 399.962 9.576C399.797 9.83733 399.679 10.1227 399.61 10.432C399.541 10.7413 399.506 11.048 399.506 11.352V16H398.146ZM407.395 16.16C406.75 16.16 406.184 16.0587 405.699 15.856C405.219 15.6533 404.846 15.3627 404.579 14.984C404.312 14.6 404.179 14.1413 404.179 13.608C404.179 13.0533 404.323 12.592 404.611 12.224C404.899 11.8507 405.304 11.56 405.827 11.352C406.35 11.144 406.958 11.0053 407.651 10.936C408.696 10.8293 409.44 10.7253 409.883 10.624C410.326 10.5173 410.547 10.3467 410.547 10.112C410.547 10.1067 410.547 10.104 410.547 10.104C410.547 10.0987 410.547 10.0933 410.547 10.088C410.547 9.59733 410.347 9.232 409.947 8.992C409.547 8.74667 408.968 8.624 408.211 8.624C407.422 8.624 406.808 8.76267 406.371 9.04C405.934 9.312 405.715 9.75467 405.715 10.368H404.371C404.371 9.73333 404.534 9.19467 404.859 8.752C405.184 8.304 405.635 7.96267 406.211 7.728C406.792 7.49333 407.462 7.376 408.219 7.376C408.912 7.376 409.536 7.48267 410.091 7.696C410.651 7.904 411.094 8.216 411.419 8.632C411.75 9.04267 411.915 9.552 411.915 10.16C411.915 10.272 411.915 10.384 411.915 10.496C411.915 10.6027 411.915 10.712 411.915 10.824V14.4C411.915 14.5867 411.923 14.768 411.939 14.944C411.955 15.12 411.982 15.2747 412.019 15.408C412.067 15.568 412.12 15.6987 412.179 15.8C412.238 15.896 412.286 15.9627 412.323 16H410.955C410.928 15.9733 410.888 15.912 410.835 15.816C410.782 15.7147 410.731 15.5973 410.683 15.464C410.646 15.3573 410.616 15.224 410.595 15.064C410.574 14.8987 410.563 14.728 410.563 14.552L410.787 14.704C410.622 14.992 410.379 15.2453 410.059 15.464C409.744 15.6827 409.363 15.8533 408.915 15.976C408.467 16.0987 407.96 16.16 407.395 16.16ZM407.611 14.936C408.16 14.936 408.656 14.8533 409.099 14.688C409.542 14.5173 409.894 14.2667 410.155 13.936C410.416 13.6053 410.547 13.1947 410.547 12.704V11.016L410.851 11.528C410.51 11.6613 410.083 11.7707 409.571 11.856C409.064 11.936 408.534 12.0027 407.979 12.056C407.174 12.1307 406.566 12.272 406.155 12.48C405.75 12.688 405.547 13.0373 405.547 13.528C405.547 13.992 405.715 14.344 406.051 14.584C406.387 14.8187 406.907 14.936 407.611 14.936ZM417.303 16.128C417.041 16.128 416.785 16.0987 416.535 16.04C416.284 15.9813 416.057 15.8773 415.855 15.728C415.657 15.5733 415.5 15.3573 415.383 15.08C415.265 14.7973 415.207 14.4347 415.207 13.992C415.207 13.88 415.207 13.7653 415.207 13.648C415.207 13.5253 415.207 13.3973 415.207 13.264V8.704H413.135V7.504H414.463C414.644 7.504 414.785 7.49867 414.887 7.488C414.988 7.472 415.06 7.43733 415.103 7.384C415.151 7.32533 415.18 7.23733 415.191 7.12C415.201 6.99733 415.207 6.82933 415.207 6.616V4.688H416.575V7.504H419.231V8.704H416.575V12.824C416.575 12.9413 416.575 13.056 416.575 13.168C416.575 13.28 416.575 13.384 416.575 13.48C416.575 13.9333 416.628 14.288 416.735 14.544C416.847 14.8 417.095 14.928 417.479 14.928C417.633 14.928 417.78 14.9147 417.919 14.888C418.057 14.8613 418.161 14.8347 418.231 14.808V15.992C418.14 16.024 418.012 16.0533 417.847 16.08C417.687 16.112 417.505 16.128 417.303 16.128ZM421.133 12.296V11.08H427.701L427.461 11.48C427.461 11.448 427.461 11.4187 427.461 11.392C427.461 11.36 427.461 11.3307 427.461 11.304C427.461 10.8133 427.357 10.3653 427.149 9.96C426.946 9.54933 426.642 9.22133 426.237 8.976C425.831 8.73067 425.33 8.608 424.733 8.608C424.13 8.608 423.599 8.736 423.141 8.992C422.682 9.248 422.325 9.61067 422.069 10.08C421.813 10.544 421.685 11.0987 421.685 11.744C421.685 12.4 421.807 12.9653 422.053 13.44C422.303 13.9147 422.658 14.28 423.117 14.536C423.575 14.792 424.119 14.92 424.749 14.92C425.197 14.92 425.586 14.8747 425.917 14.784C426.247 14.688 426.519 14.5627 426.733 14.408C426.951 14.248 427.117 14.0747 427.229 13.888C427.341 13.7013 427.407 13.5147 427.429 13.328H428.789C428.762 13.6693 428.655 14.008 428.469 14.344C428.282 14.68 428.018 14.9867 427.677 15.264C427.335 15.536 426.917 15.7547 426.421 15.92C425.925 16.0853 425.354 16.168 424.709 16.168C423.855 16.168 423.103 15.9813 422.453 15.608C421.802 15.2347 421.29 14.7173 420.917 14.056C420.549 13.3947 420.365 12.6347 420.365 11.776C420.365 10.9067 420.551 10.144 420.925 9.488C421.298 8.82667 421.813 8.30933 422.469 7.936C423.125 7.56267 423.874 7.376 424.717 7.376C425.575 7.376 426.319 7.56267 426.949 7.936C427.578 8.30933 428.063 8.82133 428.405 9.472C428.746 10.1173 428.917 10.8533 428.917 11.68C428.917 11.7653 428.914 11.8773 428.909 12.016C428.903 12.1547 428.895 12.248 428.885 12.296H421.133Z" fill="black"/>
<path d="M9.792 201.896C9.792 202.371 9.704 202.859 9.528 203.36C9.352 203.856 9.08533 204.317 8.728 204.744C8.376 205.165 7.93067 205.507 7.392 205.768C6.85333 206.029 6.22133 206.16 5.496 206.16C4.49867 206.16 3.65067 205.901 2.952 205.384C2.25333 204.861 1.72 204.144 1.352 203.232C0.989333 202.32 0.808 201.277 0.808 200.104C0.808 198.925 0.989333 197.883 1.352 196.976C1.72 196.064 2.25333 195.349 2.952 194.832C3.65067 194.315 4.49867 194.056 5.496 194.056C6.328 194.056 7.03733 194.227 7.624 194.568C8.21067 194.909 8.67733 195.344 9.024 195.872C9.37067 196.4 9.59733 196.944 9.704 197.504C9.76267 197.787 9.792 198.053 9.792 198.304H8.424C8.424 198.16 8.41067 197.995 8.384 197.808C8.32 197.36 8.16533 196.947 7.92 196.568C7.68 196.184 7.35733 195.877 6.952 195.648C6.54667 195.413 6.06133 195.296 5.496 195.296C4.83467 195.296 4.256 195.477 3.76 195.84C3.26933 196.203 2.88533 196.741 2.608 197.456C2.336 198.171 2.2 199.053 2.2 200.104C2.2 201.155 2.336 202.04 2.608 202.76C2.88533 203.475 3.26933 204.016 3.76 204.384C4.256 204.747 4.83467 204.928 5.496 204.928C5.97067 204.928 6.38933 204.843 6.752 204.672C7.11467 204.496 7.41867 204.264 7.664 203.976C7.91467 203.683 8.104 203.357 8.232 203C8.36 202.637 8.424 202.269 8.424 201.896H9.792ZM15.8418 206.152C14.9884 206.152 14.2338 205.963 13.5778 205.584C12.9271 205.2 12.4151 204.677 12.0418 204.016C11.6738 203.349 11.4898 202.592 11.4898 201.744C11.4898 200.896 11.6738 200.144 12.0418 199.488C12.4151 198.832 12.9271 198.317 13.5778 197.944C14.2338 197.571 14.9884 197.384 15.8418 197.384C16.6951 197.384 17.4471 197.571 18.0978 197.944C18.7538 198.317 19.2658 198.832 19.6337 199.488C20.0071 200.144 20.1938 200.896 20.1938 201.744C20.1938 202.592 20.0071 203.349 19.6337 204.016C19.2658 204.677 18.7538 205.2 18.0978 205.584C17.4471 205.963 16.6951 206.152 15.8418 206.152ZM15.8418 204.904C16.4284 204.904 16.9458 204.773 17.3938 204.512C17.8418 204.251 18.1911 203.883 18.4418 203.408C18.6978 202.933 18.8258 202.379 18.8258 201.744C18.8258 201.109 18.6978 200.56 18.4418 200.096C18.1911 199.627 17.8418 199.267 17.3938 199.016C16.9458 198.76 16.4284 198.632 15.8418 198.632C15.2604 198.632 14.7431 198.76 14.2898 199.016C13.8418 199.267 13.4898 199.627 13.2338 200.096C12.9831 200.56 12.8578 201.109 12.8578 201.744C12.8578 202.379 12.9831 202.933 13.2338 203.408C13.4898 203.883 13.8418 204.251 14.2898 204.512C14.7431 204.773 15.2604 204.904 15.8418 204.904ZM28.3978 206V201.928C28.3978 201.683 28.3978 201.483 28.3978 201.328C28.3978 201.168 28.3978 201.016 28.3978 200.872C28.3978 200.429 28.3231 200.043 28.1738 199.712C28.0244 199.381 27.7898 199.125 27.4698 198.944C27.1498 198.763 26.7311 198.672 26.2138 198.672C25.7604 198.672 25.3391 198.789 24.9498 199.024C24.5658 199.253 24.2564 199.565 24.0218 199.96C23.7924 200.349 23.6778 200.787 23.6778 201.272L22.9018 200.976C22.9018 200.309 23.0644 199.704 23.3898 199.16C23.7204 198.616 24.1578 198.184 24.7018 197.864C25.2511 197.539 25.8484 197.376 26.4938 197.376C27.1498 197.376 27.7231 197.501 28.2138 197.752C28.7044 198.003 29.0831 198.363 29.3498 198.832C29.6218 199.296 29.7578 199.856 29.7578 200.512C29.7578 200.747 29.7578 201.003 29.7578 201.28C29.7578 201.557 29.7578 201.816 29.7578 202.056V206H28.3978ZM22.3178 206V197.504H23.6778V206H22.3178ZM35.3783 206.16C34.8663 206.16 34.3916 206.107 33.9543 206C33.5223 205.888 33.1436 205.728 32.8183 205.52C32.4983 205.307 32.2476 205.045 32.0663 204.736C31.8903 204.427 31.8023 204.072 31.8023 203.672C31.8023 203.629 31.8023 203.587 31.8023 203.544C31.8023 203.496 31.8023 203.456 31.8023 203.424H33.1703C33.1703 203.456 33.1703 203.483 33.1703 203.504C33.1703 203.525 33.1703 203.557 33.1703 203.6C33.1703 204.032 33.3703 204.363 33.7703 204.592C34.1703 204.816 34.7169 204.928 35.4103 204.928C35.8369 204.928 36.2183 204.885 36.5543 204.8C36.8903 204.715 37.1543 204.584 37.3463 204.408C37.5436 204.232 37.6423 204.011 37.6423 203.744C37.6423 203.301 37.4343 202.987 37.0183 202.8C36.6076 202.608 35.9916 202.443 35.1703 202.304C34.7383 202.229 34.3276 202.133 33.9383 202.016C33.5489 201.893 33.2023 201.736 32.8983 201.544C32.5996 201.352 32.3623 201.115 32.1863 200.832C32.0156 200.544 31.9303 200.2 31.9303 199.8C31.9303 199.283 32.0823 198.845 32.3863 198.488C32.6956 198.125 33.1116 197.851 33.6343 197.664C34.1569 197.472 34.7383 197.376 35.3783 197.376C35.9969 197.376 36.5676 197.475 37.0903 197.672C37.6129 197.869 38.0316 198.157 38.3463 198.536C38.6663 198.909 38.8263 199.371 38.8263 199.92C38.8263 199.941 38.8263 199.968 38.8263 200C38.8263 200.027 38.8263 200.053 38.8263 200.08H37.4663C37.4663 200.053 37.4663 200.032 37.4663 200.016C37.4663 200 37.4663 199.981 37.4663 199.96C37.4663 199.651 37.3676 199.397 37.1703 199.2C36.9729 198.997 36.7169 198.848 36.4023 198.752C36.0876 198.651 35.7516 198.6 35.3943 198.6C35.0583 198.6 34.7276 198.637 34.4023 198.712C34.0769 198.781 33.8076 198.899 33.5943 199.064C33.3809 199.229 33.2743 199.456 33.2743 199.744C33.2743 200.032 33.3729 200.264 33.5703 200.44C33.7729 200.611 34.0556 200.752 34.4183 200.864C34.7863 200.971 35.2183 201.069 35.7143 201.16C36.1569 201.24 36.5756 201.341 36.9703 201.464C37.3649 201.581 37.7116 201.733 38.0103 201.92C38.3143 202.107 38.5516 202.344 38.7223 202.632C38.8983 202.915 38.9862 203.261 38.9862 203.672C38.9862 204.088 38.8903 204.451 38.6983 204.76C38.5116 205.069 38.2503 205.328 37.9143 205.536C37.5836 205.744 37.1996 205.899 36.7623 206C36.3303 206.107 35.8689 206.16 35.3783 206.16ZM41.539 202.296V201.08H48.107L47.867 201.48C47.867 201.448 47.867 201.419 47.867 201.392C47.867 201.36 47.867 201.331 47.867 201.304C47.867 200.813 47.763 200.365 47.555 199.96C47.3523 199.549 47.0483 199.221 46.643 198.976C46.2377 198.731 45.7363 198.608 45.139 198.608C44.5363 198.608 44.0057 198.736 43.547 198.992C43.0883 199.248 42.731 199.611 42.475 200.08C42.219 200.544 42.091 201.099 42.091 201.744C42.091 202.4 42.2137 202.965 42.459 203.44C42.7097 203.915 43.0643 204.28 43.523 204.536C43.9817 204.792 44.5257 204.92 45.155 204.92C45.603 204.92 45.9923 204.875 46.323 204.784C46.6537 204.688 46.9257 204.563 47.139 204.408C47.3577 204.248 47.523 204.075 47.635 203.888C47.747 203.701 47.8137 203.515 47.835 203.328H49.195C49.1683 203.669 49.0617 204.008 48.875 204.344C48.6883 204.68 48.4243 204.987 48.083 205.264C47.7417 205.536 47.323 205.755 46.827 205.92C46.331 206.085 45.7603 206.168 45.115 206.168C44.2617 206.168 43.5097 205.981 42.859 205.608C42.2083 205.235 41.6963 204.717 41.323 204.056C40.955 203.395 40.771 202.635 40.771 201.776C40.771 200.907 40.9577 200.144 41.331 199.488C41.7043 198.827 42.219 198.309 42.875 197.936C43.531 197.563 44.2803 197.376 45.123 197.376C45.9817 197.376 46.7257 197.563 47.355 197.936C47.9843 198.309 48.4697 198.821 48.811 199.472C49.1523 200.117 49.323 200.853 49.323 201.68C49.323 201.765 49.3203 201.877 49.315 202.016C49.3097 202.155 49.3017 202.248 49.291 202.296H41.539ZM51.4428 206V197.504H52.8028V200.112L52.3548 199.952C52.3868 199.637 52.4668 199.328 52.5948 199.024C52.7228 198.715 52.8988 198.437 53.1228 198.192C53.3521 197.941 53.6374 197.744 53.9788 197.6C54.3201 197.451 54.7201 197.376 55.1788 197.376C55.5201 197.376 55.7974 197.405 56.0108 197.464C56.2294 197.517 56.3654 197.56 56.4188 197.592L56.0668 198.928C56.0134 198.891 55.9041 198.843 55.7388 198.784C55.5788 198.725 55.3494 198.696 55.0508 198.696C54.6081 198.696 54.2401 198.776 53.9468 198.936C53.6588 199.096 53.4294 199.309 53.2588 199.576C53.0934 199.837 52.9761 200.123 52.9068 200.432C52.8374 200.741 52.8028 201.048 52.8028 201.352V206H51.4428ZM64.6723 197.504L61.8243 206H60.0403L57.1283 197.504H58.5363L61.0403 205.28H60.8243L63.2643 197.504H64.6723ZM68.8639 206.16C68.2185 206.16 67.6532 206.059 67.1679 205.856C66.6879 205.653 66.3145 205.363 66.0479 204.984C65.7812 204.6 65.6479 204.141 65.6479 203.608C65.6479 203.053 65.7919 202.592 66.0799 202.224C66.3679 201.851 66.7732 201.56 67.2959 201.352C67.8185 201.144 68.4265 201.005 69.1199 200.936C70.1652 200.829 70.9092 200.725 71.3519 200.624C71.7945 200.517 72.0159 200.347 72.0159 200.112C72.0159 200.107 72.0159 200.104 72.0159 200.104C72.0159 200.099 72.0159 200.093 72.0159 200.088C72.0159 199.597 71.8159 199.232 71.4159 198.992C71.0159 198.747 70.4372 198.624 69.6799 198.624C68.8905 198.624 68.2772 198.763 67.8399 199.04C67.4025 199.312 67.1839 199.755 67.1839 200.368H65.8399C65.8399 199.733 66.0025 199.195 66.3279 198.752C66.6532 198.304 67.1039 197.963 67.6799 197.728C68.2612 197.493 68.9305 197.376 69.6879 197.376C70.3812 197.376 71.0052 197.483 71.5599 197.696C72.1199 197.904 72.5625 198.216 72.8879 198.632C73.2185 199.043 73.3839 199.552 73.3839 200.16C73.3839 200.272 73.3839 200.384 73.3839 200.496C73.3839 200.603 73.3839 200.712 73.3839 200.824V204.4C73.3839 204.587 73.3919 204.768 73.4079 204.944C73.4239 205.12 73.4505 205.275 73.4879 205.408C73.5359 205.568 73.5892 205.699 73.6479 205.8C73.7065 205.896 73.7545 205.963 73.7919 206H72.4239C72.3972 205.973 72.3572 205.912 72.3039 205.816C72.2505 205.715 72.1999 205.597 72.1519 205.464C72.1145 205.357 72.0852 205.224 72.0639 205.064C72.0425 204.899 72.0319 204.728 72.0319 204.552L72.2559 204.704C72.0905 204.992 71.8479 205.245 71.5279 205.464C71.2132 205.683 70.8319 205.853 70.3839 205.976C69.9359 206.099 69.4292 206.16 68.8639 206.16ZM69.0799 204.936C69.6292 204.936 70.1252 204.853 70.5679 204.688C71.0105 204.517 71.3625 204.267 71.6239 203.936C71.8852 203.605 72.0159 203.195 72.0159 202.704V201.016L72.3199 201.528C71.9785 201.661 71.5519 201.771 71.0399 201.856C70.5332 201.936 70.0025 202.003 69.4479 202.056C68.6425 202.131 68.0345 202.272 67.6239 202.48C67.2185 202.688 67.0159 203.037 67.0159 203.528C67.0159 203.992 67.1839 204.344 67.5199 204.584C67.8559 204.819 68.3759 204.936 69.0799 204.936ZM78.7715 206.128C78.5102 206.128 78.2542 206.099 78.0035 206.04C77.7528 205.981 77.5262 205.877 77.3235 205.728C77.1262 205.573 76.9688 205.357 76.8515 205.08C76.7342 204.797 76.6755 204.435 76.6755 203.992C76.6755 203.88 76.6755 203.765 76.6755 203.648C76.6755 203.525 76.6755 203.397 76.6755 203.264V198.704H74.6035V197.504H75.9315C76.1128 197.504 76.2542 197.499 76.3555 197.488C76.4568 197.472 76.5288 197.437 76.5715 197.384C76.6195 197.325 76.6488 197.237 76.6595 197.12C76.6702 196.997 76.6755 196.829 76.6755 196.616V194.688H78.0435V197.504H80.6995V198.704H78.0435V202.824C78.0435 202.941 78.0435 203.056 78.0435 203.168C78.0435 203.28 78.0435 203.384 78.0435 203.48C78.0435 203.933 78.0968 204.288 78.2035 204.544C78.3155 204.8 78.5635 204.928 78.9475 204.928C79.1022 204.928 79.2488 204.915 79.3875 204.888C79.5262 204.861 79.6302 204.835 79.6995 204.808V205.992C79.6088 206.024 79.4808 206.053 79.3155 206.08C79.1555 206.112 78.9742 206.128 78.7715 206.128ZM82.5228 206V197.504H83.8668V206H82.5228ZM83.2028 195.552C82.9521 195.552 82.7334 195.483 82.5468 195.344C82.3654 195.2 82.2747 195.005 82.2747 194.76C82.2747 194.52 82.3654 194.331 82.5468 194.192C82.7334 194.048 82.9521 193.976 83.2028 193.976C83.4534 193.976 83.6694 194.048 83.8508 194.192C84.0321 194.331 84.1228 194.52 84.1228 194.76C84.1228 195.005 84.0321 195.2 83.8508 195.344C83.6694 195.483 83.4534 195.552 83.2028 195.552ZM93.1879 197.504L90.3399 206H88.5559L85.6439 197.504H87.0519L89.5559 205.28H89.3399L91.7799 197.504H93.1879ZM94.8515 202.296V201.08H101.42L101.18 201.48C101.18 201.448 101.18 201.419 101.18 201.392C101.18 201.36 101.18 201.331 101.18 201.304C101.18 200.813 101.076 200.365 100.868 199.96C100.665 199.549 100.361 199.221 99.9555 198.976C99.5502 198.731 99.0488 198.608 98.4515 198.608C97.8488 198.608 97.3182 198.736 96.8595 198.992C96.4008 199.248 96.0435 199.611 95.7875 200.08C95.5315 200.544 95.4035 201.099 95.4035 201.744C95.4035 202.4 95.5262 202.965 95.7715 203.44C96.0222 203.915 96.3768 204.28 96.8355 204.536C97.2942 204.792 97.8382 204.92 98.4675 204.92C98.9155 204.92 99.3048 204.875 99.6355 204.784C99.9662 204.688 100.238 204.563 100.452 204.408C100.67 204.248 100.836 204.075 100.948 203.888C101.06 203.701 101.126 203.515 101.148 203.328H102.508C102.481 203.669 102.374 204.008 102.188 204.344C102.001 204.68 101.737 204.987 101.396 205.264C101.054 205.536 100.636 205.755 100.14 205.92C99.6435 206.085 99.0728 206.168 98.4275 206.168C97.5742 206.168 96.8222 205.981 96.1715 205.608C95.5208 205.235 95.0088 204.717 94.6355 204.056C94.2675 203.395 94.0835 202.635 94.0835 201.776C94.0835 200.907 94.2702 200.144 94.6435 199.488C95.0168 198.827 95.5315 198.309 96.1875 197.936C96.8435 197.563 97.5928 197.376 98.4355 197.376C99.2942 197.376 100.038 197.563 100.668 197.936C101.297 198.309 101.782 198.821 102.124 199.472C102.465 200.117 102.636 200.853 102.636 201.68C102.636 201.765 102.633 201.877 102.628 202.016C102.622 202.155 102.614 202.248 102.604 202.296H94.8515Z" fill="black"/>
<path d="M384.199 184.221C321.462 184.221 269.904 229.297 263.984 286.94H326.225C329.763 286.94 332.607 289.817 333.037 293.323C336.278 318.457 357.775 337.903 383.802 337.903C409.829 337.903 431.325 318.457 434.566 293.323C435.029 289.817 437.84 286.94 441.379 286.94H504.413C498.526 229.297 446.968 184.221 384.199 184.221Z" fill="url(#paint0_linear_7220_12608)"/>
<path d="M384.199 189.181C445.116 189.181 495.484 231.678 503.785 286.94H504.413C498.526 229.297 446.968 184.221 384.199 184.221C321.429 184.221 269.904 229.297 263.984 286.94H264.613C272.881 231.711 323.248 189.181 384.199 189.181Z" fill="#FCFCFC"/>
<path d="M655.84 278.047C655.741 276.824 655.575 275.633 655.41 274.41C646.216 209.887 614.004 150.591 564.728 107.499C514.989 63.9767 451.128 40 384.919 40C318.711 40 254.883 63.9767 205.111 107.499C155.834 150.591 123.656 209.887 114.462 274.41C114.297 275.633 114.164 276.824 114.032 278.047C113.834 280.164 114.561 282.248 116.049 283.901C118.298 286.348 122.234 287.77 126.864 287.77H208.98C228.624 287.77 245.623 272.028 252.27 256.485C275.056 203.339 327.111 168.978 384.919 168.978C442.728 168.978 494.815 203.306 517.568 256.485C524.216 272.028 541.248 287.77 560.859 287.77H642.942C647.572 287.77 651.507 286.348 653.756 283.901C655.245 282.248 655.972 280.197 655.774 278.047H655.84Z" fill="url(#paint1_linear_7220_12608)"/>
<path d="M649.658 275.236C640.663 212.07 609.146 154.063 560.928 111.897C512.214 69.301 449.709 45.8203 384.922 45.8203C320.136 45.8203 257.664 69.301 208.95 111.897C160.732 154.063 129.215 212.07 120.219 275.236C120.054 276.361 119.922 277.452 119.823 278.576C119.657 280.428 122.865 281.917 126.867 281.917H208.983C225.089 281.917 240.599 268.986 246.916 254.17C269.867 200.627 323.013 163.124 384.922 163.124C446.832 163.124 500.011 200.627 522.929 254.17C529.279 268.953 544.789 281.917 560.862 281.917H642.945C646.98 281.917 650.154 280.428 649.989 278.576C649.89 277.452 649.758 276.361 649.592 275.236H649.658Z" fill="url(#paint2_linear_7220_12608)"/>
<path d="M246.917 254.173C269.869 200.631 323.014 163.128 384.924 163.128C446.834 163.128 500.012 200.631 522.931 254.173C529.28 268.956 544.791 281.92 560.863 281.92H602.004C586.791 175.629 495.415 93.9424 384.924 93.9424C274.433 93.9424 183.057 175.629 167.844 281.92H208.984C225.09 281.92 240.601 268.989 246.917 254.173Z" fill="#6DB624"/>
<path d="M384.912 81.5419C269.89 81.5419 174.347 168.056 155.133 281.921H167.832C183.045 175.63 274.421 93.9105 384.912 93.9105C495.404 93.9105 586.78 175.63 601.993 281.888H614.692C595.478 168.023 499.934 81.5088 384.912 81.5088V81.5419Z" fill="url(#paint3_linear_7220_12608)"/>
<path d="M384.912 81.535C496.33 81.535 589.459 162.692 612.675 271.265C588.764 158.327 496.462 78.0625 384.912 78.0625C273.363 78.0625 172.892 165.569 155.133 281.914C174.347 168.05 269.89 81.535 384.912 81.535Z" fill="white"/>
<path d="M177.6 241.672C173.135 254.57 169.828 268.03 167.844 281.887H208.984C221.419 281.887 233.49 274.148 241.262 263.797C220.063 256.356 198.765 249.179 177.6 241.672Z" fill="#6DB624"/>
<path d="M384.912 93.9072C366.59 93.9072 348.831 96.1892 331.832 100.422C335.768 123.275 339.505 146.16 342.878 169.111C356.206 165.242 370.327 163.126 384.912 163.126C430.583 163.126 471.459 183.531 499.008 215.742C512.633 196.561 526.325 177.445 540.148 158.363C500.463 118.578 445.597 93.9072 384.912 93.9072Z" fill="#FFA300"/>
<path d="M257.422 134.878C271.378 153.2 284.507 172.249 297.967 190.934C321.944 173.869 351.146 163.65 382.729 163.187V93.9688C335.999 94.4317 292.808 109.545 257.422 134.878Z" fill="#FFA300"/>
<path d="M592.308 241.769C577.558 198.975 549.943 162.166 514.094 135.974L472.953 191.633C494.78 207.474 512.209 229.036 522.957 254.171C524.544 257.842 526.661 261.38 529.241 264.654C532.151 263.166 586.553 243.952 592.341 241.769H592.308Z" fill="#F6271B"/>
<path d="M592.321 241.773C586.5 243.989 532.263 263.138 529.254 264.659C537.059 274.58 548.799 281.922 560.903 281.922H602.044C600.06 268.098 596.753 254.671 592.321 241.807V241.773Z" fill="#F6271B"/>
<path d="M586.961 227.915C588.482 231.553 589.937 235.224 591.293 238.961C589.937 235.224 588.515 231.553 586.961 227.915Z" fill="#F6271B"/>
<path style="mix-blend-mode:multiply" d="M384.196 121.623C478.615 121.623 556.763 191.238 570.157 281.92H602.004C586.791 175.629 495.415 93.9424 384.924 93.9424C274.433 93.9424 183.057 175.629 167.844 281.92H198.236C211.63 191.238 289.778 121.623 384.196 121.623Z" fill="url(#paint4_radial_7220_12608)"/>
<path d="M522.604 252.214C499.652 198.672 445.713 162.161 384.928 162.161C324.142 162.161 270.633 199.532 247.648 251.222C244.441 258.432 238.488 266.898 231.973 273.876C238.422 269.114 243.68 262.003 246.789 254.761C269.74 201.218 323.018 164.575 384.928 164.575C446.837 164.575 499.156 200.094 522.074 253.636C525.15 260.846 530.607 268.188 537.254 273.215C531.037 266.369 525.613 259.259 522.604 252.247V252.214Z" fill="white"/>
<g style="mix-blend-mode:multiply">
<path style="mix-blend-mode:multiply" opacity="0.25" d="M365.932 261.902C377.713 255.609 506.183 208.657 508.428 212.251C510.575 215.657 402.989 295.548 391.224 301.885C379.443 308.179 364.246 304.36 357.249 293.353C350.265 282.315 354.154 268.27 365.919 261.933L365.932 261.902Z" fill="url(#paint5_linear_7220_12608)"/>
</g>
<path d="M368.815 264.754C380.425 258.276 506.313 210.618 508.418 214.367C510.424 217.928 403.845 300.288 392.248 306.736C380.639 313.214 365.988 309.058 359.541 297.462C353.093 285.865 357.219 271.202 368.815 264.754Z" fill="url(#paint6_linear_7220_12608)"/>
<path d="M374.858 275.553C380.468 272.427 387.582 274.411 390.724 280.065C393.867 285.719 391.866 292.789 386.212 295.932C380.602 299.058 373.488 297.074 370.345 291.42C367.219 285.809 369.204 278.696 374.858 275.553Z" fill="url(#paint7_linear_7220_12608)"/>
<path d="M377.394 280.114C380.509 278.381 384.427 279.496 386.16 282.612C387.894 285.727 386.778 289.645 383.663 291.379C380.547 293.112 376.63 291.996 374.896 288.881C373.163 285.765 374.278 281.848 377.394 280.114Z" fill="#C1C1C1"/>
<path d="M508.413 214.375C507.62 212.977 489.303 218.843 466.123 227.044L475.142 243.789C494.389 228.283 509.128 215.703 508.382 214.362L508.413 214.375Z" fill="url(#paint8_linear_7220_12608)"/>
<defs>
<linearGradient id="paint0_linear_7220_12608" x1="331.185" y1="225.163" x2="438.37" y2="305.13" gradientUnits="userSpaceOnUse">
<stop stop-color="#F5F5F5"/>
<stop offset="1" stop-color="#EAEAEA"/>
</linearGradient>
<linearGradient id="paint1_linear_7220_12608" x1="253.13" y1="101.149" x2="408.069" y2="267.134" gradientUnits="userSpaceOnUse">
<stop stop-color="#F5F5F5"/>
<stop offset="1" stop-color="#EAEAEA"/>
</linearGradient>
<linearGradient id="paint2_linear_7220_12608" x1="184.014" y1="163.885" x2="540.523" y2="163.885" gradientUnits="userSpaceOnUse">
<stop stop-color="#F5F5F5"/>
<stop offset="1" stop-color="#EAEAEA"/>
</linearGradient>
<linearGradient id="paint3_linear_7220_12608" x1="162.442" y1="181.715" x2="621.009" y2="181.715" gradientUnits="userSpaceOnUse">
<stop stop-color="#C6C6C6"/>
<stop offset="1" stop-color="#D2D2D2"/>
</linearGradient>
<radialGradient id="paint4_radial_7220_12608" cx="0" cy="0" r="1" gradientUnits="userSpaceOnUse" gradientTransform="translate(384.715 313.658) scale(218.256 218.256)">
<stop offset="0.95" stop-color="white"/>
<stop offset="1" stop-color="#999999"/>
</radialGradient>
<linearGradient id="paint5_linear_7220_12608" x1="432.375" y1="250.108" x2="457.579" y2="289.925" gradientUnits="userSpaceOnUse">
<stop stop-color="#999999"/>
<stop offset="0.598958" stop-color="white"/>
</linearGradient>
<linearGradient id="paint6_linear_7220_12608" x1="448.671" y1="282.207" x2="417.494" y2="226.36" gradientUnits="userSpaceOnUse">
<stop stop-color="#CACACA"/>
<stop offset="1" stop-color="#EAEAEA"/>
</linearGradient>
<linearGradient id="paint7_linear_7220_12608" x1="377.375" y1="296.897" x2="383.437" y2="275.597" gradientUnits="userSpaceOnUse">
<stop stop-color="white"/>
<stop offset="0.42" stop-color="#EBEBEB"/>
<stop offset="1" stop-color="#CACACA"/>
</linearGradient>
<linearGradient id="paint8_linear_7220_12608" x1="493.101" y1="231.366" x2="485.639" y2="218.381" gradientUnits="userSpaceOnUse">
<stop stop-color="#A71F19"/>
<stop offset="1" stop-color="#F6271B"/>
</linearGradient>
</defs>
</svg>
