<svg width="102" height="103" viewBox="0 0 102 103" fill="none" xmlns="http://www.w3.org/2000/svg">
<path d="M47.8125 68.4697C47.8125 70.2301 49.2396 71.6572 51 71.6572C52.7604 71.6572 54.1875 70.2301 54.1875 68.4697H47.8125ZM54.1875 59.9697C54.1875 58.2093 52.7604 56.7822 51 56.7822C49.2396 56.7822 47.8125 58.2093 47.8125 59.9697H54.1875ZM34 37.6572H68V31.2822H34V37.6572ZM81.8125 51.4697V76.9697H88.1875V51.4697H81.8125ZM68 90.7822H34V97.1572H68V90.7822ZM20.1875 76.9697V51.4697H13.8125V76.9697H20.1875ZM34 90.7822C26.3716 90.7822 20.1875 84.5982 20.1875 76.9697H13.8125C13.8125 88.119 22.8508 97.1572 34 97.1572V90.7822ZM81.8125 76.9697C81.8125 84.5982 75.6284 90.7822 68 90.7822V97.1572C79.1492 97.1572 88.1875 88.119 88.1875 76.9697H81.8125ZM68 37.6572C75.6284 37.6572 81.8125 43.8413 81.8125 51.4697H88.1875C88.1875 40.3205 79.1492 31.2822 68 31.2822V37.6572ZM34 31.2822C22.8508 31.2822 13.8125 40.3205 13.8125 51.4697H20.1875C20.1875 43.8413 26.3716 37.6572 34 37.6572V31.2822ZM37.1875 34.4697V25.9697H30.8125V34.4697H37.1875ZM64.8125 25.9697V34.4697H71.1875V25.9697H64.8125ZM51 12.1572C58.6284 12.1572 64.8125 18.3413 64.8125 25.9697H71.1875C71.1875 14.8205 62.1492 5.78223 51 5.78223V12.1572ZM37.1875 25.9697C37.1875 18.3413 43.3716 12.1572 51 12.1572V5.78223C39.8508 5.78223 30.8125 14.8205 30.8125 25.9697H37.1875ZM54.1875 68.4697V59.9697H47.8125V68.4697H54.1875Z" fill="#01529E"/>
</svg>
