<svg width="49" height="48" viewBox="0 0 49 48" fill="none" xmlns="http://www.w3.org/2000/svg">
<path fill-rule="evenodd" clip-rule="evenodd" d="M36.5849 38.406L35.3798 37.2009C34.8894 36.7105 34.0943 36.7105 33.6038 37.2009C33.1134 37.6914 33.1134 38.4865 33.6038 38.9769L35.7687 41.1418C36.913 42.2861 38.7683 42.2861 39.9127 41.1418L42.0775 38.9769C42.5679 38.4865 42.5679 37.6914 42.0775 37.2009C41.5871 36.7105 40.7919 36.7105 40.3015 37.2009L39.0965 38.406V30.6977C39.0965 30.0041 38.5342 29.4419 37.8407 29.4419C37.1471 29.4419 36.5849 30.0041 36.5849 30.6977V38.406Z" fill="#808080"/>
<path fill-rule="evenodd" clip-rule="evenodd" d="M42.4453 13.9536C42.4453 13.26 41.8831 12.6978 41.1895 12.6978H14.3988C10.0062 12.6978 6.44535 16.2586 6.44535 20.6512V34.0466C6.44535 38.4392 10.0062 42 14.3988 42H29.4686C30.1621 42 30.7244 41.4378 30.7244 40.7442C30.7244 40.0507 30.1621 39.4884 29.4686 39.4884H14.3988C11.3934 39.4884 8.95698 37.052 8.95698 34.0466V20.6512C8.95698 17.6458 11.3934 15.2094 14.3988 15.2094H39.9337V25.6745C39.9337 26.368 40.4959 26.9303 41.1895 26.9303C41.8831 26.9303 42.4453 26.368 42.4453 25.6745V13.9536Z" fill="#808080"/>
<path fill-rule="evenodd" clip-rule="evenodd" d="M42.4453 13.9535C42.4453 9.56089 38.8844 6 34.4918 6H24.4453C20.0527 6 16.4919 9.56089 16.4919 13.9535C16.4919 14.647 17.0541 15.2093 17.7477 15.2093H41.1895C41.8831 15.2093 42.4453 14.647 42.4453 13.9535ZM39.7881 12.6977H19.1491C19.716 10.2976 21.8721 8.51162 24.4453 8.51162H34.4918C37.0651 8.51162 39.2211 10.2976 39.7881 12.6977Z" fill="#808080"/>
<path fill-rule="evenodd" clip-rule="evenodd" d="M7.70112 22.7444C7.00756 22.7444 6.44531 23.3066 6.44531 24.0002L6.44531 30.6979C6.44531 31.3914 7.00756 31.9537 7.70113 31.9537L14.3988 31.9537C16.9419 31.9537 19.0034 29.8921 19.0034 27.349C19.0034 24.806 16.9419 22.7444 14.3988 22.7444L7.70112 22.7444ZM8.95694 25.256L14.3988 25.256C15.5547 25.256 16.4918 26.1931 16.4918 27.349C16.4918 28.505 15.5547 29.4421 14.3988 29.4421L8.95694 29.4421L8.95694 25.256Z" fill="#808080"/>
</svg>
