<svg width="120" height="120" viewBox="0 0 120 120" fill="none" xmlns="http://www.w3.org/2000/svg">
<circle cx="60" cy="60" r="60" fill="#FBEAE9"/>
<path fill-rule="evenodd" clip-rule="evenodd" d="M49.1581 35.8245C52.0337 32.949 55.9338 31.3335 60.0004 31.3335C64.0671 31.3335 67.9672 32.949 70.8427 35.8245C73.7183 38.7001 75.3337 42.6002 75.3337 46.6668C75.3337 50.7335 73.7183 54.6336 70.8427 57.5091C67.9672 60.3847 64.0671 62.0002 60.0004 62.0002C55.9338 62.0002 52.0337 60.3847 49.1581 57.5091C46.2826 54.6336 44.6671 50.7335 44.6671 46.6668C44.6671 42.6002 46.2826 38.7001 49.1581 35.8245ZM60.0004 35.3335C56.9946 35.3335 54.112 36.5275 51.9865 38.653C49.8611 40.7784 48.6671 43.661 48.6671 46.6668C48.6671 49.6726 49.8611 52.5553 51.9865 54.6807C54.112 56.8061 56.9946 58.0002 60.0004 58.0002C63.0062 58.0002 65.8889 56.8061 68.0143 54.6807C70.1397 52.5553 71.3337 49.6726 71.3337 46.6668C71.3337 43.661 70.1397 40.7784 68.0143 38.653C65.8889 36.5275 63.0062 35.3335 60.0004 35.3335ZM60.0004 70.0002C48.0614 70.0002 39.0937 77.8158 39.0937 86.6668C39.0937 87.7714 38.1983 88.6668 37.0937 88.6668C35.9892 88.6668 35.0938 87.7714 35.0938 86.6668C35.0938 74.8779 46.6594 66.0002 60.0004 66.0002C62.7404 66.0002 65.3993 66.3711 67.8923 67.0588C68.9571 67.3526 69.5821 68.4539 69.2884 69.5187C68.9947 70.5835 67.8934 71.2085 66.8286 70.9148C64.6815 70.3225 62.3804 70.0002 60.0004 70.0002Z" fill="#B3261E"/>
<path fill-rule="evenodd" clip-rule="evenodd" d="M75.9982 67.3335C74.86 67.3321 73.7327 67.5552 72.6809 67.9901C71.629 68.425 70.6733 69.0632 69.8685 69.868C69.0637 70.6728 68.4255 71.6285 67.9906 72.6804C67.5557 73.7322 67.3326 74.8595 67.334 75.9977L67.334 76.0042C67.3308 77.5724 67.7639 79.1104 68.5847 80.4465L68.6045 80.4795C69.0249 81.194 69.5769 81.8539 70.2172 82.4088L70.2586 82.4457C71.8239 83.8802 73.8716 84.6731 75.9948 84.6668L76.0048 84.6668C77.496 84.6699 78.9623 84.2847 80.2593 83.5489C81.5563 82.8132 82.6394 81.7523 83.4019 80.4708L83.4188 80.4424L83.4191 80.4425C83.8625 79.7246 84.2048 78.8914 84.3961 78.0411C84.4019 78.0156 84.4081 77.9902 84.4149 77.9648C84.582 77.3381 84.6673 76.6849 84.6673 76.0002C84.6673 73.7973 83.826 71.7623 82.4351 70.2193L82.4177 70.1999L82.4178 70.1998C80.8732 68.4406 78.5652 67.3335 76.0007 67.3335L75.9982 67.3335ZM76.0021 63.3335C74.3381 63.3316 72.6901 63.6578 71.1524 64.2936C69.6144 64.9296 68.2169 65.8627 67.0401 67.0396C65.8632 68.2164 64.9301 69.6139 64.2941 71.1519C63.6586 72.689 63.3324 74.3362 63.334 75.9994C63.334 75.9983 63.334 75.9972 63.334 75.9961L65.334 76.0002L63.334 76.0027C63.334 76.0016 63.334 76.0005 63.334 75.9994C63.3299 78.302 63.9643 80.5606 65.1666 82.5242C65.8068 83.6083 66.6304 84.5895 67.5765 85.4133C69.8786 87.5136 72.8847 88.6748 76.0015 88.6668C78.1856 88.6705 80.3331 88.1058 82.2329 87.0281C84.1294 85.9523 85.7138 84.4024 86.8311 82.5302C87.4966 81.4492 88.0009 80.2215 88.2899 78.9575C88.5426 77.9963 88.6673 77.0088 88.6673 76.0002C88.6673 72.7677 87.4322 69.7933 85.4149 67.5507C83.1199 64.9427 79.7256 63.3339 76.0021 63.3335ZM80.1616 71.7593C80.9426 72.5403 80.9426 73.8067 80.1616 74.5877L78.7723 75.977L80.2382 77.436C81.0211 78.2152 81.0241 79.4815 80.2449 80.2644C79.4657 81.0473 78.1994 81.0503 77.4165 80.2711L75.9439 78.8054L74.5349 80.2144C73.7538 80.9954 72.4875 80.9954 71.7065 80.2144C70.9254 79.4333 70.9254 78.167 71.7065 77.386L73.1088 75.9837L71.7631 74.6444C70.9802 73.8652 70.9773 72.5989 71.7565 71.816C72.5357 71.0331 73.802 71.0301 74.5849 71.8093L75.9372 73.1552L77.3331 71.7593C78.1142 70.9782 79.3805 70.9782 80.1616 71.7593Z" fill="#B3261E"/>
</svg>
