<svg width="59" height="59" viewBox="0 0 59 59" fill="none" xmlns="http://www.w3.org/2000/svg">
<circle cx="29.5" cy="29.5" r="29.5" fill="#ECF8F3"/>
<path fill-rule="evenodd" clip-rule="evenodd" d="M20.6618 36.7673C20.3114 37.1125 20.2487 37.3588 20.2487 37.4987C20.2487 37.6386 20.3114 37.8849 20.6618 38.2301C21.0165 38.5795 21.594 38.9518 22.4084 39.2911C24.0318 39.9675 26.3611 40.4154 28.9987 40.4154C31.6363 40.4154 33.9656 39.9675 35.589 39.2911C36.4034 38.9518 36.9809 38.5795 37.3356 38.2301C37.686 37.8849 37.7487 37.6386 37.7487 37.4987C37.7487 37.3588 37.686 37.1125 37.3356 36.7673C36.9809 36.4179 36.4034 36.0456 35.589 35.7063C33.9656 35.0299 31.6363 34.582 28.9987 34.582C26.3611 34.582 24.0318 35.0299 22.4084 35.7063C21.594 36.0456 21.0165 36.4179 20.6618 36.7673ZM21.4469 33.3986C23.4428 32.5669 26.1135 32.082 28.9987 32.082C31.8839 32.082 34.5546 32.5669 36.5505 33.3986C37.5458 33.8133 38.4328 34.3388 39.0901 34.9864C39.7518 35.6382 40.2487 36.488 40.2487 37.4987C40.2487 38.5094 39.7518 39.3592 39.0901 40.011C38.4328 40.6586 37.5458 41.1841 36.5505 41.5988C34.5546 42.4305 31.8839 42.9154 28.9987 42.9154C26.1135 42.9154 23.4428 42.4305 21.4469 41.5988C20.4516 41.1841 19.5646 40.6586 18.9073 40.011C18.2456 39.3592 17.7487 38.5094 17.7487 37.4987C17.7487 36.488 18.2456 35.6382 18.9073 34.9864C19.5646 34.3388 20.4516 33.8133 21.4469 33.3986Z" fill="#56C596"/>
<path fill-rule="evenodd" clip-rule="evenodd" d="M28.9987 19.582C26.9276 19.582 25.2487 21.261 25.2487 23.332C25.2487 25.4031 26.9276 27.082 28.9987 27.082C31.0698 27.082 32.7487 25.4031 32.7487 23.332C32.7487 21.261 31.0698 19.582 28.9987 19.582ZM22.7487 23.332C22.7487 19.8803 25.5469 17.082 28.9987 17.082C32.4505 17.082 35.2487 19.8803 35.2487 23.332C35.2487 26.7838 32.4505 29.582 28.9987 29.582C25.5469 29.582 22.7487 26.7838 22.7487 23.332Z" fill="#56C596"/>
<path fill-rule="evenodd" clip-rule="evenodd" d="M19.7411 32.1012C17.6768 32.1871 15.7806 32.5589 14.3086 33.1477C13.4674 33.4842 12.7028 33.9161 12.128 34.4597C11.5506 35.0057 11.082 35.7507 11.082 36.6654C11.082 37.58 11.5506 38.325 12.128 38.871C12.7028 39.4146 13.4674 39.8465 14.3086 40.183C15.1416 40.5162 16.1104 40.7799 17.1686 40.9616C16.3459 40.0742 15.8296 39.0826 15.6985 38.0312C15.5377 37.977 15.3838 37.9205 15.237 37.8618C14.5702 37.595 14.1144 37.3087 13.8458 37.0546C13.5817 36.8049 13.582 36.673 13.582 36.6655C13.582 36.658 13.5817 36.5258 13.8458 36.2761C14.1144 36.022 14.5702 35.7357 15.237 35.4689C15.5753 35.3336 15.952 35.2097 16.3618 35.1001C17.0513 33.9503 18.2228 32.9253 19.7411 32.1012Z" fill="#56C596"/>
<path fill-rule="evenodd" clip-rule="evenodd" d="M42.299 38.0312C42.1679 39.0826 41.6515 40.0742 40.8288 40.9616C41.8871 40.7799 42.8559 40.5162 43.6889 40.183C44.5301 39.8465 45.2947 39.4146 45.8694 38.871C46.4468 38.325 46.9154 37.58 46.9154 36.6654C46.9154 35.7507 46.4468 35.0057 45.8694 34.4597C45.2947 33.9161 44.5301 33.4842 43.6889 33.1477C42.2169 32.5589 40.3206 32.1871 38.2563 32.1012C39.7746 32.9253 40.9461 33.9503 41.6356 35.1001C42.0454 35.2097 42.4221 35.3336 42.7604 35.4689C43.4273 35.7357 43.883 36.022 44.1517 36.2761C44.4157 36.5258 44.4154 36.6577 44.4154 36.6652C44.4154 36.6727 44.4157 36.8049 44.1517 37.0546C43.883 37.3087 43.4273 37.595 42.7604 37.8618C42.6137 37.9205 42.4597 37.977 42.299 38.0312Z" fill="#56C596"/>
<path fill-rule="evenodd" clip-rule="evenodd" d="M36.5227 26.919C36.1562 27.6863 35.6758 28.3889 35.1033 29.0046C35.7631 29.3725 36.5231 29.582 37.332 29.582C39.8633 29.582 41.9154 27.53 41.9154 24.9987C41.9154 22.4674 39.8633 20.4154 37.332 20.4154C37.1582 20.4154 36.9867 20.425 36.8179 20.4439C37.1047 21.2199 37.2792 22.0503 37.3218 22.9154C37.3252 22.9154 37.3286 22.9154 37.332 22.9154C38.4826 22.9154 39.4154 23.8481 39.4154 24.9987C39.4154 26.1493 38.4826 27.082 37.332 27.082C37.045 27.082 36.7715 27.024 36.5227 26.919Z" fill="#56C596"/>
<path fill-rule="evenodd" clip-rule="evenodd" d="M21.1795 20.4439C21.0107 20.425 20.8392 20.4154 20.6654 20.4154C18.1341 20.4154 16.082 22.4674 16.082 24.9987C16.082 27.53 18.1341 29.582 20.6654 29.582C21.4743 29.582 22.2343 29.3725 22.8941 29.0046C22.3216 28.3889 21.8412 27.6863 21.4747 26.919C21.2259 27.024 20.9524 27.082 20.6654 27.082C19.5148 27.082 18.582 26.1493 18.582 24.9987C18.582 23.8481 19.5148 22.9154 20.6654 22.9154C20.6688 22.9154 20.6722 22.9154 20.6756 22.9154C20.7182 22.0503 20.8927 21.2199 21.1795 20.4439Z" fill="#56C596"/>
</svg>
