<svg width="25" height="25" viewBox="0 0 25 25" fill="none" xmlns="http://www.w3.org/2000/svg">
<path d="M21.4792 4.51206C20.3659 3.39629 19.0431 2.51148 17.5868 1.90844C16.1305 1.3054 14.5694 0.996013 12.9932 0.998057C6.36519 0.998057 0.992188 6.37106 0.992188 12.9991C0.992188 16.3131 2.33619 19.3141 4.50819 21.4861C5.62152 22.6018 6.94432 23.4866 8.40061 24.0897C9.8569 24.6927 11.418 25.0021 12.9942 25.0001C19.6222 25.0001 24.9952 19.6271 24.9952 12.9991C24.9952 9.68506 23.6512 6.68406 21.4792 4.51206ZM19.9372 19.9391C19.0264 20.8522 17.9442 21.5763 16.7527 22.0699C15.5612 22.5634 14.2839 22.8167 12.9942 22.8151C7.57119 22.8151 3.17519 18.4191 3.17519 12.9961C3.17357 11.7064 3.42682 10.4291 3.92038 9.23757C4.41393 8.04607 5.13807 6.96383 6.05119 6.05306C6.96175 5.13993 8.0438 4.41577 9.23515 3.92221C10.4265 3.42864 11.7036 3.17541 12.9932 3.17706C18.4152 3.17706 22.8112 7.57306 22.8112 12.9951C22.8129 14.2846 22.5597 15.5618 22.0661 16.7531C21.5725 17.9445 20.8484 19.0265 19.9352 19.9371L19.9372 19.9391Z" fill="#01529E"/>
<path d="M14.5375 13.0005L18.3925 9.14548C18.5827 8.93821 18.6855 8.6655 18.6794 8.38428C18.6733 8.10306 18.5588 7.83506 18.3598 7.63622C18.1609 7.43739 17.8928 7.32308 17.6116 7.31717C17.3303 7.31125 17.0577 7.41419 16.8505 7.60448L16.8515 7.60348L12.9965 11.4585L9.14154 7.60348C8.93427 7.41332 8.66156 7.31057 8.38034 7.31666C8.09912 7.32276 7.83112 7.43724 7.63229 7.6362C7.43345 7.83517 7.31915 8.10324 7.31323 8.38446C7.30732 8.66569 7.41025 8.93833 7.60054 9.14548L7.59954 9.14448L11.4545 12.9995L7.59954 16.8545C7.49108 16.954 7.40387 17.0744 7.34318 17.2085C7.28248 17.3426 7.24954 17.4876 7.24635 17.6348C7.24316 17.7819 7.26978 17.9282 7.32461 18.0648C7.37944 18.2014 7.46134 18.3255 7.56539 18.4296C7.66944 18.5337 7.79348 18.6157 7.93004 18.6706C8.06661 18.7255 8.21287 18.7523 8.36004 18.7492C8.5072 18.7461 8.65221 18.7132 8.78635 18.6526C8.92048 18.592 9.04096 18.5049 9.14054 18.3965L9.14154 18.3955L12.9965 14.5405L16.8515 18.3955C16.951 18.5039 17.0715 18.5911 17.2056 18.6518C17.3397 18.7125 17.4847 18.7455 17.6318 18.7487C17.779 18.7519 17.9253 18.7252 18.0619 18.6704C18.1985 18.6156 18.3226 18.5337 18.4267 18.4296C18.5308 18.3256 18.6128 18.2015 18.6677 18.065C18.7226 17.9284 18.7493 17.7821 18.7462 17.635C18.7431 17.4878 18.7103 17.3428 18.6497 17.2087C18.5891 17.0745 18.5019 16.9541 18.3935 16.8545L18.3925 16.8535L14.5375 13.0005Z" fill="#01529E"/>
</svg>
