<svg width="33" height="33" viewBox="0 0 33 33" fill="none" xmlns="http://www.w3.org/2000/svg">
<path d="M17.2209 15.6306H23.4431C23.9341 15.6306 24.332 16.0286 24.332 16.5195C24.332 17.0105 23.9341 17.4084 23.4431 17.4084H17.2209H15.4431L9.22092 17.4084C8.73 17.4084 8.33203 17.0105 8.33203 16.5195C8.33203 16.0286 8.73 15.6306 9.22092 15.6306H15.4431H17.2209Z" fill="#56C596"/>
<path fill-rule="evenodd" clip-rule="evenodd" d="M16.332 31.5195C24.6163 31.5195 31.332 24.8038 31.332 16.5195C31.332 8.23526 24.6163 1.51953 16.332 1.51953C8.04776 1.51953 1.33203 8.23526 1.33203 16.5195C1.33203 24.8038 8.04776 31.5195 16.332 31.5195ZM16.332 32.5195C25.1686 32.5195 32.332 25.3561 32.332 16.5195C32.332 7.68298 25.1686 0.519531 16.332 0.519531C7.49548 0.519531 0.332031 7.68298 0.332031 16.5195C0.332031 25.3561 7.49548 32.5195 16.332 32.5195Z" fill="#56C596"/>
</svg>
