<svg width="120" height="120" viewBox="0 0 120 120" fill="none" xmlns="http://www.w3.org/2000/svg">
<circle cx="60" cy="60" r="60" fill="#F2FBEA"/>
<path fill-rule="evenodd" clip-rule="evenodd" d="M60.0004 34.7745C55.1051 34.7745 51.1367 38.7429 51.1367 43.6381V47.0472H68.864V43.6381C68.864 38.7429 64.8956 34.7745 60.0004 34.7745ZM72.9549 47.2078V43.6381C72.9549 36.4835 67.155 30.6836 60.0004 30.6836C52.8458 30.6836 47.0458 36.4835 47.0458 43.6381V47.2078C40.8631 48.1885 36.1367 53.5432 36.1367 60.0018V76.3654C36.1367 83.52 41.9367 89.32 49.0913 89.32H70.9094C78.064 89.32 83.864 83.52 83.864 76.3654V60.0018C83.864 53.5432 79.1376 48.1885 72.9549 47.2078ZM49.0913 51.1381C44.196 51.1381 40.2276 55.1065 40.2276 60.0018V76.3654C40.2276 81.2607 44.196 85.229 49.0913 85.229H70.9094C75.8047 85.229 79.7731 81.2607 79.7731 76.3654V60.0018C79.7731 55.1065 75.8047 51.1381 70.9094 51.1381H49.0913ZM60.0004 63.4109C61.13 63.4109 62.0458 64.3266 62.0458 65.4563V70.9109C62.0458 72.0405 61.13 72.9563 60.0004 72.9563C58.8707 72.9563 57.9549 72.0405 57.9549 70.9109V65.4563C57.9549 64.3266 58.8707 63.4109 60.0004 63.4109Z" fill="#277252"/>
</svg>
