<svg width="24" height="24" viewBox="0 0 24 24" fill="none" xmlns="http://www.w3.org/2000/svg">
<path fill-rule="evenodd" clip-rule="evenodd" d="M15.5 1.75C15.5 1.33579 15.8358 1 16.25 1C16.6642 1 17 1.33579 17 1.75V2.5H17.25C19.8734 2.5 22 4.62665 22 7.25V8.75V17.75C22 20.3734 19.8734 22.5 17.25 22.5H7.25C4.62665 22.5 2.5 20.3734 2.5 17.75V8.75V7.25C2.5 4.62665 4.62665 2.5 7.25 2.5H7.5V1.75C7.5 1.33579 7.83579 1 8.25 1C8.66421 1 9 1.33579 9 1.75V2.5H15.5V1.75ZM4 8V7.25C4 5.45507 5.45507 4 7.25 4H7.5V4.75C7.5 5.16421 7.83579 5.5 8.25 5.5C8.66421 5.5 9 5.16421 9 4.75V4H15.5V4.75C15.5 5.16421 15.8358 5.5 16.25 5.5C16.6642 5.5 17 5.16421 17 4.75V4H17.25C19.0449 4 20.5 5.45507 20.5 7.25V8H4ZM20.5 9.5H4V17.75C4 19.5449 5.45507 21 7.25 21H17.25C19.0449 21 20.5 19.5449 20.5 17.75V9.5Z" fill="#4D4D4D"/>
</svg>
