<svg width="25" height="25" viewBox="0 0 25 25" fill="none" xmlns="http://www.w3.org/2000/svg">
<path fill-rule="evenodd" clip-rule="evenodd" d="M6.33203 4.50977C4.53711 4.50977 3.08203 5.96484 3.08203 7.75977V17.7598C3.08203 19.5547 4.53711 21.0098 6.33203 21.0098H18.332C20.127 21.0098 21.582 19.5547 21.582 17.7598V10.7598C21.582 8.96484 20.127 7.50977 18.332 7.50977H15.6654C14.6376 7.50977 13.6376 7.17642 12.8154 6.55977L10.9487 5.15977C10.3861 4.73784 9.7019 4.50977 8.9987 4.50977H6.33203ZM1.58203 7.75977C1.58203 5.13641 3.70868 3.00977 6.33203 3.00977H8.9987C10.0265 3.00977 11.0265 3.34311 11.8487 3.95977L13.7154 5.35977C14.2779 5.78169 14.9622 6.00977 15.6654 6.00977H18.332C20.9554 6.00977 23.082 8.13641 23.082 10.7598V17.7598C23.082 20.3831 20.9554 22.5098 18.332 22.5098H6.33203C3.70868 22.5098 1.58203 20.3831 1.58203 17.7598V7.75977ZM12.332 10.0098C12.7462 10.0098 13.082 10.3456 13.082 10.7598V14.9315C13.1287 14.8965 13.1734 14.8577 13.2159 14.8152L14.8017 13.2294C15.0946 12.9365 15.5695 12.9365 15.8624 13.2294C16.1553 13.5223 16.1553 13.9972 15.8624 14.2901L14.2766 15.8759C13.2026 16.9498 11.4614 16.9498 10.3875 15.8759L8.8017 14.2901C8.50881 13.9972 8.50881 13.5223 8.8017 13.2294C9.09459 12.9365 9.56947 12.9365 9.86236 13.2294L11.4481 14.8152C11.4906 14.8577 11.5354 14.8965 11.582 14.9315V10.7598C11.582 10.3456 11.9178 10.0098 12.332 10.0098Z" fill="#808080"/>
</svg>
