<svg width="25" height="25" viewBox="0 0 25 25" fill="none" xmlns="http://www.w3.org/2000/svg">
<path fill-rule="evenodd" clip-rule="evenodd" d="M7.33203 2.00977L11.6752 2.00977C12.935 2.00977 14.1431 2.51021 15.0339 3.40101L20.6908 9.05786C21.5816 9.94866 22.082 11.1568 22.082 12.4166V18.7598C22.082 21.3831 19.9554 23.5098 17.332 23.5098H7.33203C4.70868 23.5098 2.58203 21.3831 2.58203 18.7598L2.58203 6.75977C2.58203 4.13641 4.70868 2.00977 7.33203 2.00977ZM11.6752 3.50977L7.33203 3.50977C5.53711 3.50977 4.08203 4.96484 4.08203 6.75977L4.08203 18.7598C4.08203 20.5547 5.53711 22.0098 7.33203 22.0098H17.332C19.127 22.0098 20.582 20.5547 20.582 18.7598V12.4166C20.582 12.107 20.5378 11.8019 20.453 11.5098L17.332 11.5098C14.7087 11.5098 12.582 9.38312 12.582 6.75977V3.63884C12.2899 3.55396 11.9848 3.50977 11.6752 3.50977ZM14.082 4.57043V6.75977C14.082 8.55469 15.5371 10.0098 17.332 10.0098L19.5214 10.0098L14.082 4.57043Z" fill="#808080"/>
<path d="M6.76953 18.7598V14.4648H8.16113C8.68848 14.4648 9.03223 14.4863 9.19238 14.5293C9.43848 14.5938 9.64453 14.7344 9.81055 14.9512C9.97656 15.166 10.0596 15.4443 10.0596 15.7861C10.0596 16.0498 10.0117 16.2715 9.91602 16.4512C9.82031 16.6309 9.69824 16.7725 9.5498 16.876C9.40332 16.9775 9.25391 17.0449 9.10156 17.0781C8.89453 17.1191 8.59473 17.1396 8.20215 17.1396H7.63672V18.7598H6.76953ZM7.63672 15.1914V16.4102H8.11133C8.45312 16.4102 8.68164 16.3877 8.79688 16.3428C8.91211 16.2979 9.00195 16.2275 9.06641 16.1318C9.13281 16.0361 9.16602 15.9248 9.16602 15.7979C9.16602 15.6416 9.12012 15.5127 9.02832 15.4111C8.93652 15.3096 8.82031 15.2461 8.67969 15.2207C8.57617 15.2012 8.36816 15.1914 8.05566 15.1914H7.63672Z" fill="#808080"/>
<path d="M10.7686 14.4648H12.3535C12.7109 14.4648 12.9834 14.4922 13.1709 14.5469C13.4229 14.6211 13.6387 14.7529 13.8184 14.9424C13.998 15.1318 14.1348 15.3643 14.2285 15.6396C14.3223 15.9131 14.3691 16.251 14.3691 16.6533C14.3691 17.0068 14.3252 17.3115 14.2373 17.5674C14.1299 17.8799 13.9766 18.1328 13.7773 18.3262C13.627 18.4727 13.4238 18.5869 13.168 18.6689C12.9766 18.7295 12.7207 18.7598 12.4004 18.7598H10.7686V14.4648ZM11.6357 15.1914V18.0361H12.2832C12.5254 18.0361 12.7002 18.0225 12.8076 17.9951C12.9482 17.96 13.0645 17.9004 13.1562 17.8164C13.25 17.7324 13.3262 17.5947 13.3848 17.4033C13.4434 17.21 13.4727 16.9473 13.4727 16.6152C13.4727 16.2832 13.4434 16.0283 13.3848 15.8506C13.3262 15.6729 13.2441 15.5342 13.1387 15.4346C13.0332 15.335 12.8994 15.2676 12.7373 15.2324C12.6162 15.2051 12.3789 15.1914 12.0254 15.1914H11.6357Z" fill="#808080"/>
<path d="M15.1133 18.7598V14.4648H18.0576V15.1914H15.9805V16.208H17.7734V16.9346H15.9805V18.7598H15.1133Z" fill="#808080"/>
</svg>
