<svg width="16" height="16" viewBox="0 0 16 16" fill="none" xmlns="http://www.w3.org/2000/svg">
<path fill-rule="evenodd" clip-rule="evenodd" d="M4.00065 2.16602C2.25175 2.16602 0.833984 3.58378 0.833984 5.33268V10.666C0.833984 12.4149 2.25175 13.8327 4.00065 13.8327H12.0007C13.7496 13.8327 15.1673 12.4149 15.1673 10.666V5.33268C15.1673 3.58378 13.7496 2.16602 12.0007 2.16602H4.00065ZM1.83398 5.33268C1.83398 4.13607 2.80403 3.16602 4.00065 3.16602H12.0007C13.1973 3.16602 14.1673 4.13607 14.1673 5.33268V10.666C14.1673 11.8626 13.1973 12.8327 12.0007 12.8327H4.00065C2.80403 12.8327 1.83398 11.8626 1.83398 10.666V5.33268ZM7.16732 7.99935C7.16732 8.45959 7.54041 8.83268 8.00065 8.83268C8.46089 8.83268 8.83398 8.45959 8.83398 7.99935C8.83398 7.53911 8.46089 7.16602 8.00065 7.16602C7.54041 7.16602 7.16732 7.53911 7.16732 7.99935ZM8.00065 9.83268C6.98813 9.83268 6.16732 9.01187 6.16732 7.99935C6.16732 6.98683 6.98813 6.16602 8.00065 6.16602C9.01317 6.16602 9.83398 6.98683 9.83398 7.99935C9.83398 9.01187 9.01317 9.83268 8.00065 9.83268ZM12.6673 7.99935C12.6673 7.63116 12.3688 7.33268 12.0007 7.33268C11.6325 7.33268 11.334 7.63116 11.334 7.99935C11.334 8.36754 11.6325 8.66602 12.0007 8.66602C12.3688 8.66602 12.6673 8.36754 12.6673 7.99935ZM4.00065 7.33268C4.36884 7.33268 4.66732 7.63116 4.66732 7.99935C4.66732 8.36754 4.36884 8.66602 4.00065 8.66602C3.63246 8.66602 3.33398 8.36754 3.33398 7.99935C3.33398 7.63116 3.63246 7.33268 4.00065 7.33268Z" fill="#4D4D4D"/>
</svg>
