<svg width="162" height="40" viewBox="0 0 162 40" fill="none" xmlns="http://www.w3.org/2000/svg">
<path d="M18.0837 36.6813C15.5563 36.6813 13.2185 36.2706 11.0703 35.4492C8.95366 34.5963 7.10554 33.4116 5.52596 31.8952C3.97797 30.3788 2.76169 28.5939 1.87712 26.5404C1.02414 24.4869 0.597656 22.2439 0.597656 19.8114C0.597656 17.3788 1.02414 15.1358 1.87712 13.0823C2.76169 11.0289 3.99376 9.24395 5.57335 7.72755C7.15293 6.21114 9.00105 5.04225 11.1177 4.22087C13.2659 3.36789 15.6037 2.94141 18.131 2.94141C20.6584 2.94141 22.9646 3.3363 25.0496 4.12609C27.1663 4.91589 28.967 6.11637 30.4518 7.72755L28.272 9.95476C26.8819 8.56472 25.3497 7.56959 23.6754 6.96934C22.001 6.3691 20.2003 6.06898 18.2732 6.06898C16.2197 6.06898 14.3242 6.41649 12.5867 7.11151C10.8808 7.77493 9.38015 8.73848 8.08489 10.0021C6.82122 11.2342 5.82608 12.6874 5.09947 14.3618C4.40445 16.0046 4.05695 17.8211 4.05695 19.8114C4.05695 21.7701 4.40445 23.5866 5.09947 25.2609C5.82608 26.9353 6.82122 28.4043 8.08489 29.668C9.38015 30.9 10.8808 31.8636 12.5867 32.5586C14.3242 33.222 16.204 33.5537 18.2258 33.5537C20.1213 33.5537 21.9062 33.2694 23.5806 32.7008C25.2866 32.1321 26.8504 31.1686 28.272 29.8101L30.2623 32.4638C28.6827 33.8539 26.8346 34.9122 24.7179 35.6388C22.6013 36.3338 20.3899 36.6813 18.0837 36.6813ZM26.8977 32.0373V19.8114H30.2623V32.4638L26.8977 32.0373Z" fill="#01529E"/>
<path d="M50.0436 36.6339C47.4531 36.6339 45.1785 36.0969 43.2198 35.0228C41.2611 33.9171 39.7289 32.4164 38.6232 30.5209C37.5175 28.5939 36.9646 26.3982 36.9646 23.9341C36.9646 21.4699 37.4859 19.2901 38.5284 17.3946C39.6025 15.4991 41.0558 14.0143 42.8881 12.9402C44.752 11.8345 46.837 11.2816 49.1432 11.2816C51.481 11.2816 53.5503 11.8187 55.351 12.8928C57.1833 13.9353 58.6207 15.4201 59.6633 17.3472C60.7058 19.2427 61.227 21.4383 61.227 23.9341C61.227 24.092 61.2112 24.2658 61.1797 24.4553C61.1797 24.6133 61.1797 24.7871 61.1797 24.9766H39.5236V22.4651H59.3789L58.0521 23.4602C58.0521 21.6595 57.6572 20.0641 56.8674 18.6741C56.1092 17.2524 55.0667 16.1467 53.7398 15.3569C52.413 14.5671 50.8808 14.1722 49.1432 14.1722C47.4373 14.1722 45.9051 14.5671 44.5466 15.3569C43.1882 16.1467 42.1299 17.2524 41.3717 18.6741C40.6135 20.0957 40.2344 21.7227 40.2344 23.555V24.0762C40.2344 25.9717 40.6451 27.6461 41.4664 29.0993C42.3194 30.5209 43.4883 31.6425 44.9731 32.4638C46.4895 33.2536 48.2113 33.6485 50.1384 33.6485C51.6548 33.6485 53.0606 33.38 54.3559 32.8429C55.6827 32.3059 56.82 31.4845 57.7678 30.3788L59.6633 32.5586C58.5575 33.8855 57.1675 34.8964 55.4932 35.5914C53.8504 36.2864 52.0339 36.6339 50.0436 36.6339Z" fill="#01529E"/>
<path d="M125.589 37.598V12.6139H128.967V37.598H125.589ZM127.302 7.09358C126.604 7.09358 126.017 6.85563 125.541 6.37975C125.065 5.90386 124.827 5.33279 124.827 4.66655C124.827 4.00031 125.065 3.4451 125.541 3.00094C126.017 2.52505 126.604 2.28711 127.302 2.28711C128 2.28711 128.587 2.50919 129.063 2.95335C129.538 3.39751 129.776 3.95272 129.776 4.61896C129.776 5.31693 129.538 5.90386 129.063 6.37975C128.618 6.85563 128.031 7.09358 127.302 7.09358Z" fill="#01529E"/>
<path d="M151.123 12.3759C153.153 12.3759 154.93 12.7725 156.452 13.5657C158.007 14.3271 159.213 15.5009 160.069 17.0872C160.958 18.6735 161.402 20.6722 161.402 23.0834V37.598H158.023V23.4165C158.023 20.7833 157.357 18.8004 156.024 17.4679C154.723 16.1037 152.883 15.4216 150.504 15.4216C148.727 15.4216 147.173 15.7865 145.84 16.5162C144.539 17.2141 143.524 18.2452 142.795 19.6094C142.097 20.9419 141.748 22.5599 141.748 24.4635V37.598H138.369V12.6139H141.605V19.4667L141.081 18.1818C141.874 16.3734 143.143 14.9616 144.888 13.9464C146.633 12.8994 148.711 12.3759 151.123 12.3759Z" fill="#01529E"/>
<path d="M98.0225 16H112.522C114.455 16 116.022 17.567 116.022 19.5C116.022 21.433 114.455 23 112.522 23H98.0225V16Z" fill="#56C596"/>
<path d="M122.022 3.5C122.022 1.567 120.455 0 118.522 0H98.0225V7H118.522C120.455 7 122.022 5.433 122.022 3.5Z" fill="#56C596"/>
<path d="M90.5234 40C88.5904 40 87.0234 38.433 87.0234 36.5V3.50001C87.0234 1.56701 88.5904 7.62939e-06 90.5234 7.62939e-06C92.4564 7.62939e-06 94.0234 1.56701 94.0234 3.50001V36.5C94.0234 38.433 92.4564 40 90.5234 40Z" fill="#56C596"/>
<path d="M79.5225 32C77.5895 32 76.0225 30.433 76.0225 28.5V7.5C76.0225 5.56701 77.5895 4 79.5225 4C81.4555 4 83.0225 5.56701 83.0225 7.5V28.5C83.0225 30.433 81.4555 32 79.5225 32Z" fill="#56C596"/>
<path d="M67.5225 40C65.5895 40 64.0225 38.433 64.0225 36.5V3.50001C64.0225 1.56701 65.5895 7.62939e-06 67.5225 7.62939e-06C69.4555 7.62939e-06 71.0225 1.56701 71.0225 3.50001V36.5C71.0225 38.433 69.4555 40 67.5225 40Z" fill="#56C596"/>
</svg>
