<svg width="36" height="25" viewBox="0 0 36 25" fill="none" xmlns="http://www.w3.org/2000/svg">
<path d="M21.0078 10.4014H29.7078C30.8676 10.4014 31.8078 11.3416 31.8078 12.5014C31.8078 13.6612 30.8676 14.6014 29.7078 14.6014H21.0078V10.4014Z" fill="#56C596"/>
<path d="M35.3984 2.90127C35.3984 1.74147 34.4582 0.80127 33.2984 0.80127H20.9984V5.00127H33.2984C34.4582 5.00127 35.3984 4.06107 35.3984 2.90127Z" fill="#56C596"/>
<path d="M16.4984 24.8013C15.3386 24.8013 14.3984 23.8611 14.3984 22.7013L14.3984 2.90127C14.3984 1.74148 15.3386 0.801273 16.4984 0.801273C17.6582 0.801273 18.5984 1.74147 18.5984 2.90127V22.7013C18.5984 23.8611 17.6582 24.8013 16.4984 24.8013Z" fill="#56C596"/>
<path d="M9.90469 20.0015C8.74489 20.0015 7.80469 19.0613 7.80469 17.9015L7.80469 5.30147C7.80469 4.14167 8.74489 3.20147 9.90469 3.20147C11.0645 3.20147 12.0047 4.14167 12.0047 5.30147V17.9015C12.0047 19.0613 11.0645 20.0015 9.90469 20.0015Z" fill="#56C596"/>
<path d="M2.70156 24.8013C1.54176 24.8013 0.601563 23.8611 0.601563 22.7013L0.601563 2.90127C0.601563 1.74148 1.54176 0.801273 2.70156 0.801273C3.86136 0.801273 4.80156 1.74147 4.80156 2.90127L4.80156 22.7013C4.80156 23.8611 3.86136 24.8013 2.70156 24.8013Z" fill="#56C596"/>
</svg>
