<svg width="20" height="22" viewBox="0 0 20 22" fill="none" xmlns="http://www.w3.org/2000/svg">
<path fill-rule="evenodd" clip-rule="evenodd" d="M5.35352 2.25C5.67998 1.09575 6.74122 0.25 8 0.25H12C13.2588 0.25 14.32 1.09575 14.6465 2.25H15C17.6234 2.25 19.75 4.37665 19.75 7V17C19.75 19.6234 17.6234 21.75 15 21.75H5C2.37665 21.75 0.25 19.6234 0.25 17V7C0.25 4.37665 2.37665 2.25 5 2.25H5.35352ZM5.35352 3.75H5C3.20507 3.75 1.75 5.20507 1.75 7V17C1.75 18.7949 3.20507 20.25 5 20.25H15C16.7949 20.25 18.25 18.7949 18.25 17V7C18.25 5.20507 16.7949 3.75 15 3.75H14.6465C14.32 4.90425 13.2588 5.75 12 5.75H8C6.74122 5.75 5.67998 4.90425 5.35352 3.75ZM8 1.75C7.30964 1.75 6.75 2.30964 6.75 3C6.75 3.69036 7.30964 4.25 8 4.25H12C12.6904 4.25 13.25 3.69036 13.25 3C13.25 2.30964 12.6904 1.75 12 1.75H8ZM5.25 9C5.25 8.58579 5.58579 8.25 6 8.25H14C14.4142 8.25 14.75 8.58579 14.75 9C14.75 9.41421 14.4142 9.75 14 9.75H6C5.58579 9.75 5.25 9.41421 5.25 9ZM5.25 13C5.25 12.5858 5.58579 12.25 6 12.25H14C14.4142 12.25 14.75 12.5858 14.75 13C14.75 13.4142 14.4142 13.75 14 13.75H6C5.58579 13.75 5.25 13.4142 5.25 13ZM5.25 17C5.25 16.5858 5.58579 16.25 6 16.25H10C10.4142 16.25 10.75 16.5858 10.75 17C10.75 17.4142 10.4142 17.75 10 17.75H6C5.58579 17.75 5.25 17.4142 5.25 17Z" fill="#4D4D4D"/>
</svg>
