<svg width="18" height="22" viewBox="0 0 18 22" fill="none" xmlns="http://www.w3.org/2000/svg">
<path fill-rule="evenodd" clip-rule="evenodd" d="M9 1.75C7.20507 1.75 5.75 3.20507 5.75 5V6.25H12.25V5C12.25 3.20507 10.7949 1.75 9 1.75ZM13.75 6.30888V5C13.75 2.37665 11.6234 0.25 9 0.25C6.37665 0.25 4.25 2.37665 4.25 5V6.30888C1.98301 6.66846 0.25 8.63185 0.25 11V17C0.25 19.6234 2.37665 21.75 5 21.75H13C15.6234 21.75 17.75 19.6234 17.75 17V11C17.75 8.63185 16.017 6.66846 13.75 6.30888ZM5 7.75C3.20507 7.75 1.75 9.20507 1.75 11V17C1.75 18.7949 3.20508 20.25 5 20.25H13C14.7949 20.25 16.25 18.7949 16.25 17V11C16.25 9.20507 14.7949 7.75 13 7.75H5ZM9 12.25C9.41421 12.25 9.75 12.5858 9.75 13V15C9.75 15.4142 9.41421 15.75 9 15.75C8.58579 15.75 8.25 15.4142 8.25 15V13C8.25 12.5858 8.58579 12.25 9 12.25Z" fill="#4D4D4D"/>
</svg>
