<svg width="24" height="25" viewBox="0 0 24 25" fill="none" xmlns="http://www.w3.org/2000/svg">
<ellipse cx="10" cy="17.9697" rx="7" ry="3.5" stroke="#686868" stroke-width="1.5" stroke-linejoin="round"/>
<circle cx="10" cy="7.46973" r="4" stroke="#686868" stroke-width="1.5" stroke-linejoin="round"/>
<path fill-rule="evenodd" clip-rule="evenodd" d="M15.0443 10.7195C14.7223 11.2184 14.3283 11.6665 13.8769 12.049C14.2314 12.1601 14.6085 12.22 14.9996 12.22C17.0707 12.22 18.7496 10.541 18.7496 8.46997C18.7496 6.5142 17.2524 4.90811 15.3416 4.73536C15.6078 5.25432 15.8006 5.81715 15.9063 6.41013C16.6974 6.75885 17.2496 7.54992 17.2496 8.46997C17.2496 9.69768 16.2663 10.6957 15.0443 10.7195Z" fill="#686868"/>
<path fill-rule="evenodd" clip-rule="evenodd" d="M19.0002 18.0262C18.9901 18.6404 18.8153 19.2305 18.5014 19.7808C18.8698 19.6794 19.2149 19.562 19.5317 19.43C20.1289 19.1812 20.6611 18.8658 21.0555 18.4773C21.4525 18.0862 21.7506 17.5764 21.7506 16.9699C21.7506 16.3635 21.4525 15.8536 21.0555 15.4625C20.6611 15.074 20.1289 14.7586 19.5317 14.5098C18.5091 14.0837 17.1912 13.8093 15.75 13.7383C16.7522 14.2474 17.5707 14.8869 18.1357 15.6142C18.4334 15.6974 18.7077 15.7915 18.9548 15.8945C19.4435 16.0981 19.7899 16.3214 20.0028 16.5311C20.213 16.7382 20.2506 16.886 20.2506 16.9699C20.2506 17.0538 20.213 17.2017 20.0028 17.4087C19.7966 17.6119 19.465 17.8278 19.0002 18.0262Z" fill="#686868"/>
</svg>
