<svg width="56" height="56" viewBox="0 0 56 56" fill="none" xmlns="http://www.w3.org/2000/svg">
<circle cx="28" cy="28" r="28" fill="#6DB624" fill-opacity="0.15"/>
<path d="M37.65 27.4197L37.5938 27.3073C37.5938 27.2512 37.5376 27.195 37.5376 27.1388L37.4815 26.9141L34.0544 26.8579C32.5938 26.8579 31.2454 26.8579 29.8971 26.8017C28.4364 26.7455 27.0319 26.7455 25.515 26.6894L22.2565 26.6332L22.2003 26.8579C22.2003 26.9141 22.1442 26.9703 22.1442 27.0264L22.088 27.1388C21.6385 28.4871 20.7958 29.2737 19.4475 29.4984L19.1666 29.5546V29.7793C19.1666 31.1838 19.1104 32.3636 19.0542 33.5434L18.998 35.0041L19.2228 35.0603C20.6273 35.4535 21.5262 36.4086 21.8633 37.8693L21.9194 38.094H22.1442C24.1105 38.1502 25.8521 38.1502 27.4251 38.2064L29.5038 38.2626H31.751C33.3241 38.2626 35.0657 38.2626 37.0882 38.3187H37.3129L37.3691 38.094C37.7624 36.6333 38.6613 35.7344 40.122 35.3974L40.3467 35.3412V33.9928C40.3467 32.813 40.3467 31.5209 40.4029 30.1164V29.8917L40.1781 29.8355C38.886 29.5546 37.9871 28.768 37.65 27.4197ZM39.841 33.9932V34.892C38.3804 35.3415 37.4253 36.2966 36.9758 37.7573C35.0657 37.7573 33.3803 37.7011 31.8072 37.7011H29.7847L27.4251 37.6449C25.9083 37.5887 24.279 37.5887 22.3689 37.5325C21.9756 36.0718 21.0205 35.0606 19.616 34.6111V33.5999C19.6722 32.5325 19.6722 31.3527 19.7284 30.0605C21.1329 29.7234 22.1442 28.8245 22.5936 27.3638L22.6498 27.2515V27.1953L25.4588 27.2515C26.9757 27.3077 28.3802 27.3077 29.8409 27.3638C31.1892 27.3638 32.5938 27.3638 33.9983 27.42H37.032L37.0882 27.5324C37.4815 28.9931 38.4365 29.9482 39.841 30.2852V33.9932Z" fill="#6DB624"/>
<path d="M29.784 29.0488C29.784 29.0488 29.7278 29.0488 29.784 29.0488C28.8289 29.0488 27.9862 29.3859 27.312 30.0601C26.6379 30.7342 26.3008 31.577 26.3008 32.4758C26.3008 34.386 27.8177 35.959 29.7278 35.959H29.784C30.6829 35.959 31.5818 35.622 32.1997 34.9478C32.8739 34.2736 33.211 33.4309 33.211 32.532C33.211 30.6219 31.6941 29.0488 29.784 29.0488ZM29.7278 35.3972C28.0986 35.3972 26.8064 34.0489 26.8064 32.4758C26.8064 31.6893 27.1435 30.959 27.6491 30.4533C28.2109 29.8915 28.9413 29.6106 29.6716 29.6106C31.3009 29.6106 32.593 30.959 32.5368 32.532C32.6492 34.1051 31.357 35.3972 29.7278 35.3972Z" fill="#6DB624"/>
<path d="M45.5139 25.7903C45.233 24.4981 44.1655 23.7116 42.761 23.6554C39.8396 23.6554 37.48 23.5993 34.9522 23.5993L29.9522 23.5431L25.1768 23.4307C22.5925 23.3745 20.1767 23.3184 17.1433 23.206C15.7388 23.206 14.6714 23.9363 14.3343 25.2285C14.2781 25.5094 14.2219 25.7341 14.2219 25.9588C14.1095 29.6668 14.0534 33.3747 13.941 37.0267L13.8848 38.3751C13.8286 40.0043 14.9523 41.1841 16.6377 41.2403L30.1775 41.5774H31.3011L42.6496 41.6897C43.4361 41.6897 44.1665 41.4088 44.6721 40.9032C45.1777 40.3976 45.4586 39.6672 45.4586 38.8807V38.4313C45.5148 34.4986 45.5148 30.4536 45.571 26.4645C45.571 26.2959 45.571 26.0712 45.5148 25.7903H45.5139ZM44.1655 26.5206C44.1093 30.5095 44.1093 34.5542 44.0532 38.4874V38.9369C44.0532 39.3863 43.9408 39.7234 43.6599 39.9481C43.4352 40.1729 43.0419 40.2852 42.6486 40.3414L31.0196 40.229H30.9072L16.6932 39.892C15.8505 39.892 15.2887 39.3301 15.3449 38.4313L15.4011 37.0829C15.5134 33.4312 15.5696 29.7236 15.682 26.015C15.682 25.8465 15.682 25.7341 15.7381 25.6218C15.9629 24.7791 16.7494 24.6105 17.1988 24.6667C20.1764 24.7229 22.6484 24.7791 25.2323 24.8914L30.0077 25.0038L35.0078 25.06C37.4797 25.06 39.8955 25.1161 42.8165 25.1161C43.266 25.1161 43.9963 25.2847 44.2211 26.1274C44.1649 26.2397 44.1649 26.3521 44.1649 26.5206H44.1655Z" fill="#6DB624"/>
<path d="M15.5139 15.4532C19.4466 16.2397 22.4238 16.8577 26.0759 17.588L28.0984 17.9813L31.6939 18.6555C34.6715 19.2173 37.312 19.6667 40.6828 20.2847C41.1323 20.3409 41.8626 20.6218 41.9188 21.5769H42.6491L43.3233 21.5207V21.4645C43.2671 20.1723 42.3682 19.1611 40.9637 18.8802C37.5929 18.2622 34.9524 17.7566 31.9748 17.251L28.3231 16.5768L26.3006 16.1835C22.705 15.4532 19.7271 14.8914 15.7951 14.0487C14.3906 13.8239 13.2108 14.3857 12.649 15.5655C12.5367 15.8464 12.4805 16.0712 12.4243 16.2959C11.694 19.9476 10.9636 23.6552 10.2333 27.3073L10.0085 28.4871C9.95236 28.8803 10.1771 29.2174 10.5703 29.3298H10.6827C11.0198 29.3298 11.3007 29.1051 11.3569 28.768L11.5816 27.5882C12.3119 23.9364 13.0423 20.2288 13.8288 16.5203C13.8288 16.3517 13.885 16.2394 13.9412 16.127C14.2783 15.3405 15.0648 15.3405 15.5142 15.4529L15.5139 15.4532Z" fill="#6DB624"/>
</svg>
