<svg width="40" height="41" viewBox="0 0 40 41" fill="none" xmlns="http://www.w3.org/2000/svg">
<circle cx="20" cy="20.5" r="20" fill="#ECF8F3"/>
<path fill-rule="evenodd" clip-rule="evenodd" d="M18.6871 11.9051C19.4802 11.365 20.516 11.365 21.3092 11.9051L28.3377 16.6913C29.5338 17.5058 29.0081 19.4535 27.5054 19.4535L12.4908 19.4535C10.9882 19.4535 10.4624 17.5058 11.6586 16.6913L18.6871 11.9051ZM20.6023 12.9431C20.2357 12.6934 19.7606 12.6934 19.3939 12.9431L12.3654 17.7293C12.2657 17.7972 12.2317 17.9031 12.2667 18.0209C12.2842 18.08 12.3162 18.1252 12.3507 18.1531C12.3808 18.1774 12.4229 18.1977 12.4908 18.1977L27.5054 18.1977C27.5734 18.1977 27.6155 18.1774 27.6455 18.1531C27.68 18.1252 27.7121 18.08 27.7296 18.0209C27.7645 17.9031 27.7306 17.7972 27.6308 17.7293L20.6023 12.9431Z" fill="#56C596"/>
<path fill-rule="evenodd" clip-rule="evenodd" d="M12.6726 18.1977H18.1144V26.1512H12.6726V18.1977ZM13.9284 19.4535V24.8953H16.8586V19.4535H13.9284Z" fill="#56C596"/>
<path fill-rule="evenodd" clip-rule="evenodd" d="M21.8819 18.1977H27.3237V26.1512H21.8819V18.1977ZM23.1377 19.4535V24.8953H26.0679V19.4535H23.1377Z" fill="#56C596"/>
<path fill-rule="evenodd" clip-rule="evenodd" d="M27.0156 28.2442C27.1712 28.2442 27.2724 28.0804 27.2028 27.9413L26.3656 26.2669C26.3301 26.196 26.2577 26.1512 26.1784 26.1512H13.8179C13.7386 26.1512 13.6661 26.196 13.6307 26.2669L12.7935 27.9413C12.7239 28.0804 12.8251 28.2442 12.9807 28.2442H27.0156ZM28.326 27.3797C28.8131 28.3538 28.1047 29.5 27.0156 29.5H12.9807C11.8915 29.5 11.1832 28.3538 11.6702 27.3797L12.5074 25.7052C12.7556 25.2089 13.2629 24.8953 13.8179 24.8953L26.1784 24.8953C26.7333 24.8953 27.2406 25.2089 27.4888 25.7052L28.326 27.3797Z" fill="#56C596"/>
</svg>
