<svg width="40" height="41" viewBox="0 0 40 41" fill="none" xmlns="http://www.w3.org/2000/svg">
<circle cx="20" cy="20.5" r="20" fill="#ECF8F3"/>
<path fill-rule="evenodd" clip-rule="evenodd" d="M11 13.8023C11 12.5308 12.0308 11.5 13.3023 11.5H18.3256C19.5971 11.5 20.6279 12.5308 20.6279 13.8023V17.1512C20.6279 18.4227 19.5971 19.4535 18.3256 19.4535H13.3023C12.0308 19.4535 11 18.4227 11 17.1512V13.8023ZM13.3023 12.7558C12.7244 12.7558 12.2558 13.2244 12.2558 13.8023V17.1512C12.2558 17.7291 12.7244 18.1977 13.3023 18.1977H18.3256C18.9036 18.1977 19.3721 17.7291 19.3721 17.1512V13.8023C19.3721 13.2244 18.9036 12.7558 18.3256 12.7558H13.3023Z" fill="#56C596"/>
<path fill-rule="evenodd" clip-rule="evenodd" d="M19.3721 23.8488C19.3721 22.5773 20.4029 21.5465 21.6744 21.5465H26.6977C27.9692 21.5465 29 22.5773 29 23.8488V27.1977C29 28.4692 27.9692 29.5 26.6977 29.5H21.6744C20.4029 29.5 19.3721 28.4692 19.3721 27.1977V23.8488ZM21.6744 22.8023C21.0964 22.8023 20.6279 23.2709 20.6279 23.8488V27.1977C20.6279 27.7756 21.0964 28.2442 21.6744 28.2442H26.6977C27.2756 28.2442 27.7442 27.7756 27.7442 27.1977V23.8488C27.7442 23.2709 27.2756 22.8023 26.6977 22.8023H21.6744Z" fill="#56C596"/>
<path fill-rule="evenodd" clip-rule="evenodd" d="M27.203 16.1047L26.6005 16.7072C26.3552 16.9524 26.3552 17.3499 26.6005 17.5952C26.8457 17.8404 27.2432 17.8404 27.4885 17.5952L28.5709 16.5127C29.143 15.9406 29.143 15.0129 28.5709 14.4408L27.4885 13.3583C27.2432 13.1131 26.8457 13.1131 26.6005 13.3583C26.3552 13.6035 26.3552 14.0011 26.6005 14.2463L27.203 14.8488H23.3488C23.0021 14.8488 22.7209 15.13 22.7209 15.4767C22.7209 15.8235 23.0021 16.1047 23.3488 16.1047H27.203Z" fill="#56C596"/>
<path fill-rule="evenodd" clip-rule="evenodd" d="M12.797 26.1512L13.3995 26.7537C13.6448 26.9989 13.6448 27.3965 13.3995 27.6417C13.1543 27.8869 12.7568 27.8869 12.5115 27.6417L11.4291 26.5592C10.857 25.9871 10.857 25.0594 11.4291 24.4873L12.5115 23.4048C12.7568 23.1596 13.1543 23.1596 13.3995 23.4048C13.6448 23.6501 13.6448 24.0476 13.3995 24.2928L12.797 24.8953H16.6512C16.9979 24.8953 17.2791 25.1765 17.2791 25.5233C17.2791 25.87 16.9979 26.1512 16.6512 26.1512H12.797Z" fill="#56C596"/>
</svg>
