<svg width="24" height="24" viewBox="0 0 24 24" fill="none" xmlns="http://www.w3.org/2000/svg">
<path fill-rule="evenodd" clip-rule="evenodd" d="M1.25 8C1.25 5.37665 3.37665 3.25 6 3.25H18C20.6234 3.25 22.75 5.37665 22.75 8V11.5C22.75 11.9142 22.4142 12.25 22 12.25C21.5858 12.25 21.25 11.9142 21.25 11.5V8C21.25 6.20507 19.7949 4.75 18 4.75H6C4.20507 4.75 2.75 6.20507 2.75 8V16C2.75 17.7949 4.20507 19.25 6 19.25H13C13.4142 19.25 13.75 19.5858 13.75 20C13.75 20.4142 13.4142 20.75 13 20.75H6C3.37665 20.75 1.25 18.6234 1.25 16V8ZM7 8C7 7.44772 6.55228 7 6 7C5.44772 7 5 7.44772 5 8C5 8.55228 5.44772 9 6 9C6.55228 9 7 8.55228 7 8ZM10.75 12C10.75 12.6904 11.3096 13.25 12 13.25C12.6904 13.25 13.25 12.6904 13.25 12C13.25 11.3096 12.6904 10.75 12 10.75C11.3096 10.75 10.75 11.3096 10.75 12ZM12 14.75C10.4812 14.75 9.25 13.5188 9.25 12C9.25 10.4812 10.4812 9.25 12 9.25C13.5188 9.25 14.75 10.4812 14.75 12C14.75 13.5188 13.5188 14.75 12 14.75ZM19 17.25C18.3096 17.25 17.75 16.6904 17.75 16C17.75 15.3096 18.3096 14.75 19 14.75C19.6904 14.75 20.25 15.3096 20.25 16C20.25 16.6904 19.6904 17.25 19 17.25ZM16.9584 17.8424C16.5181 17.3548 16.25 16.7087 16.25 16C16.25 14.4812 17.4812 13.25 19 13.25C20.5188 13.25 21.75 14.4812 21.75 16C21.75 16.7087 21.4819 17.3548 21.0416 17.8424C21.7318 18.2742 22.2946 18.9135 22.6706 19.6641C22.8561 20.0345 22.7062 20.4851 22.3359 20.6706C21.9655 20.8561 21.5149 20.7062 21.3294 20.3359C20.8335 19.3457 19.9476 18.75 19 18.75C18.0524 18.75 17.1665 19.3457 16.6706 20.3359C16.4851 20.7062 16.0345 20.8561 15.6641 20.6706C15.2938 20.4851 15.1439 20.0345 15.3294 19.6641C15.7054 18.9135 16.2683 18.2742 16.9584 17.8424Z" fill="#4D4D4D"/>
</svg>
