<svg width="120" height="120" viewBox="0 0 120 120" fill="none" xmlns="http://www.w3.org/2000/svg">
<g clip-path="url(#clip0_11274_18911)">
<mask id="mask0_11274_18911" style="mask-type:luminance" maskUnits="userSpaceOnUse" x="0" y="0" width="120" height="120">
<path d="M120 0H0V120H120V0Z" fill="white"/>
</mask>
<g mask="url(#mask0_11274_18911)">
<path d="M15.2029 47.2919C17.406 46.8175 19.5764 48.2187 20.0511 50.4214C20.5255 52.6245 19.1244 54.7956 16.9213 55.27C14.7183 55.7447 12.5475 54.3432 12.0727 52.1402C11.5984 49.9371 12.9999 47.7663 15.2029 47.2919Z" fill="#FF6D83"/>
<path d="M101.401 34.5371C103.572 34.0696 105.71 35.4499 106.178 37.6205C106.646 39.7912 105.265 41.9297 103.094 42.3974C100.924 42.8649 98.7853 41.4846 98.3175 39.314C97.8501 37.1433 99.2306 35.0045 101.401 34.5371Z" fill="#0373E3"/>
<path d="M62.3797 9.85672C64.6476 9.36838 66.8819 10.8108 67.3702 13.0783C67.8589 15.3461 66.4162 17.5811 64.1483 18.0694C61.8804 18.5581 59.6462 17.1154 59.1575 14.8475C58.6691 12.5797 60.1119 10.3451 62.3797 9.85672Z" fill="#FFB636"/>
<path d="M41.8758 98.6545C44.1437 98.1658 46.3776 99.6082 46.8663 101.876C47.3546 104.144 45.9126 106.378 43.6448 106.867C41.3769 107.355 39.1423 105.913 38.6536 103.645C38.1652 101.378 39.608 99.1429 41.8758 98.6545Z" fill="#0373E3"/>
<path d="M99.2631 78.9822C101.563 78.4868 103.829 79.9498 104.325 82.2501C104.82 84.5503 103.357 86.8165 101.057 87.3118C98.7566 87.8075 96.4905 86.3445 95.9948 84.0443C95.4995 81.744 96.9628 79.4779 99.2631 78.9822Z" fill="#BDA3FF"/>
<path d="M69.2133 25.6168C88.2048 30.7056 99.4748 50.2263 94.3864 69.2174C89.2972 88.209 69.7761 99.4789 50.785 94.3901C31.7939 89.301 20.5235 69.7806 25.6127 50.7895C30.7011 31.798 50.2218 20.528 69.2133 25.6168Z" fill="#43D296"/>
<path d="M54.0978 73.5304C53.6917 73.8971 53.0667 73.8706 52.6926 73.4712L39.7701 59.6709C39.3279 59.1188 39.1138 58.4232 39.1707 57.7236C39.2273 57.0233 39.5512 56.3713 40.0771 55.8962C40.603 55.4215 41.2924 55.1594 42.007 55.1621C42.722 55.1648 43.4097 55.4323 43.9334 55.9117L53.2465 65.8574C53.4956 66.1236 53.9125 66.1408 54.1831 65.8962L73.715 48.2597C74.2765 47.826 74.9848 47.6166 75.6973 47.674C76.41 47.731 77.0745 48.0496 77.5587 48.5673C78.0431 49.0839 78.3111 49.7617 78.3093 50.4637C78.3075 51.1658 78.0361 51.8407 77.549 52.3544L54.0978 73.5304Z" fill="white"/>
<path d="M32.7898 27.4403C32.7898 27.4403 32.8895 23.6484 30.5117 20.169" stroke="#FF6E83" stroke-width="3.5051" stroke-linecap="round"/>
<path d="M27.9708 89.9941C28.5776 90.7761 32.622 96.2765 24.9988 94.6029C21.664 93.8709 20.8928 94.6109 21.1516 95.7465" stroke="#BEA4FF" stroke-width="3.31507" stroke-linecap="round"/>
<path d="M87.967 26.3944C88.736 24.961 95.2068 13.6041 101.23 25.3074C101.513 25.8552 101.739 26.3646 101.916 26.8369" stroke="#FFB636" stroke-width="2.99724" stroke-linecap="round"/>
<path d="M84.7997 91.8034C84.7997 91.8034 83.3069 95.739 87.8109 98.803" stroke="#213262" stroke-width="3.31507" stroke-linecap="round"/>
</g>
</g>
<defs>
<clipPath id="clip0_11274_18911">
<rect width="120" height="120" fill="white"/>
</clipPath>
</defs>
</svg>
