<svg width="24" height="25" viewBox="0 0 24 25" fill="none" xmlns="http://www.w3.org/2000/svg">
<path d="M11.25 16.4697C11.25 16.8839 11.5858 17.2197 12 17.2197C12.4142 17.2197 12.75 16.8839 12.75 16.4697H11.25ZM12.75 14.4697C12.75 14.0555 12.4142 13.7197 12 13.7197C11.5858 13.7197 11.25 14.0555 11.25 14.4697H12.75ZM8 9.21973H16V7.71973H8V9.21973ZM19.25 12.4697V18.4697H20.75V12.4697H19.25ZM16 21.7197H8V23.2197H16V21.7197ZM4.75 18.4697V12.4697H3.25V18.4697H4.75ZM8 21.7197C6.20508 21.7197 4.75 20.2647 4.75 18.4697H3.25C3.25 21.0931 5.37665 23.2197 8 23.2197V21.7197ZM19.25 18.4697C19.25 20.2647 17.7949 21.7197 16 21.7197V23.2197C18.6234 23.2197 20.75 21.0931 20.75 18.4697H19.25ZM16 9.21973C17.7949 9.21973 19.25 10.6748 19.25 12.4697H20.75C20.75 9.84637 18.6234 7.71973 16 7.71973V9.21973ZM8 7.71973C5.37665 7.71973 3.25 9.84637 3.25 12.4697H4.75C4.75 10.6748 6.20507 9.21973 8 9.21973V7.71973ZM8.75 8.46973V6.46973H7.25V8.46973H8.75ZM15.25 6.46973V8.46973H16.75V6.46973H15.25ZM12 3.21973C13.7949 3.21973 15.25 4.6748 15.25 6.46973H16.75C16.75 3.84637 14.6234 1.71973 12 1.71973V3.21973ZM8.75 6.46973C8.75 4.6748 10.2051 3.21973 12 3.21973V1.71973C9.37665 1.71973 7.25 3.84637 7.25 6.46973H8.75ZM12.75 16.4697V14.4697H11.25V16.4697H12.75Z" fill="#686868"/>
</svg>
