<svg width="24" height="24" viewBox="0 0 24 24" fill="none" xmlns="http://www.w3.org/2000/svg">
<path fill-rule="evenodd" clip-rule="evenodd" d="M3.46967 3.46967C3.17678 3.76256 3.17678 4.23744 3.46967 4.53033L5.50577 6.56644C4.23631 7.45497 3.15444 8.46485 2.32608 9.33641C0.891308 10.846 0.891308 13.154 2.32608 14.6636C4.2977 16.738 7.84898 19.75 12 19.75C13.8983 19.75 15.6634 19.1196 17.1946 18.2552L19.4697 20.5303C19.7626 20.8232 20.2374 20.8232 20.5303 20.5303C20.8232 20.2374 20.8232 19.7626 20.5303 19.4697L4.53033 3.46967C4.23744 3.17678 3.76256 3.17678 3.46967 3.46967ZM16.0886 17.1492L14.068 15.1286C13.4752 15.5211 12.7638 15.75 12 15.75C9.92892 15.75 8.24999 14.0711 8.24999 12C8.24999 11.2362 8.47895 10.5248 8.87137 9.93203L6.58444 7.6451C5.32903 8.49238 4.24541 9.49433 3.41334 10.3698C2.52889 11.3004 2.52889 12.6996 3.41334 13.6302C5.35328 15.6713 8.51999 18.25 12 18.25C13.4279 18.25 14.81 17.8162 16.0886 17.1492ZM9.74999 12C9.74999 11.6522 9.82854 11.3234 9.96913 11.0298L12.9702 14.0309C12.6766 14.1715 12.3478 14.25 12 14.25C10.7574 14.25 9.74999 13.2426 9.74999 12ZM12 4.25C11.0225 4.25 10.0801 4.41736 9.18831 4.69699C8.79307 4.82092 8.57313 5.24179 8.69705 5.63703C8.82098 6.03227 9.24185 6.25221 9.63709 6.12829C10.4042 5.88776 11.1948 5.75 12 5.75C15.48 5.75 18.6467 8.32869 20.5867 10.3698C21.4711 11.3004 21.4711 12.6996 20.5867 13.6302C20.1602 14.0789 19.6662 14.5624 19.1153 15.0421C18.8029 15.314 18.7701 15.7878 19.0421 16.1002C19.3141 16.4126 19.7878 16.4453 20.1002 16.1734C20.6921 15.6581 21.2202 15.1409 21.6739 14.6636C23.1087 13.154 23.1087 10.846 21.6739 9.33641C19.7023 7.26198 16.151 4.25 12 4.25Z" fill="#4D4D4D"/>
</svg>
