<svg width="49" height="49" viewBox="0 0 49 49" fill="none" xmlns="http://www.w3.org/2000/svg">
<path fill-rule="evenodd" clip-rule="evenodd" d="M25.946 6.58203C25.946 5.7536 25.2745 5.08203 24.446 5.08203C23.6176 5.08203 22.946 5.7536 22.946 6.58203V8.58203C22.946 9.41046 23.6176 10.082 24.446 10.082C25.2745 10.082 25.946 9.41046 25.946 8.58203V6.58203ZM20.149 13.082C18.0652 13.082 16.254 14.5126 15.7714 16.5397L13.8666 24.5397C13.6559 25.4248 13.7212 26.2989 13.9995 27.082H10.149C8.06522 27.082 6.25401 28.5126 5.77137 30.5397L3.86661 38.5397C3.19335 41.3674 5.3375 44.082 8.24424 44.082H20.6479C22.271 44.082 23.6563 43.2357 24.4461 41.9958C25.2359 43.2357 26.6212 44.082 28.2442 44.082H40.6479C43.5547 44.082 45.6988 41.3674 45.0256 38.5397L43.1208 30.5397C42.6382 28.5126 40.827 27.082 38.7432 27.082H34.8927C35.171 26.2989 35.2363 25.4248 35.0256 24.5397L33.1208 16.5397C32.6382 14.5126 30.827 13.082 28.7432 13.082H20.149ZM25.7714 30.5397L24.4461 36.1059L23.1208 30.5397C23.0836 30.3835 23.0385 30.2308 22.986 30.082H25.9062C25.8537 30.2308 25.8086 30.3835 25.7714 30.5397ZM30.6479 27.082H30.149H18.7432H18.2442C17.2753 27.082 16.5606 26.1772 16.785 25.2346L18.6898 17.2346C18.8507 16.5589 19.4544 16.082 20.149 16.082H28.7432C29.4378 16.082 30.0415 16.5589 30.2024 17.2346L32.1071 25.2346C32.3316 26.1772 31.6168 27.082 30.6479 27.082ZM28.6898 31.2346C28.8507 30.5589 29.4544 30.082 30.149 30.082H30.6479H38.7432C39.4378 30.082 40.0415 30.5589 40.2024 31.2346L42.1071 39.2346C42.3316 40.1772 41.6169 41.082 40.6479 41.082H28.2442C27.2753 41.082 26.5606 40.1772 26.785 39.2346L28.6898 31.2346ZM18.7432 30.082H18.2442H10.149C9.45441 30.082 8.85067 30.5589 8.68979 31.2346L6.78503 39.2346C6.56061 40.1772 7.27532 41.082 8.24424 41.082H20.6479C21.6168 41.082 22.3316 40.1772 22.1071 39.2346L20.2024 31.2346C20.0415 30.5589 19.4378 30.082 18.7432 30.082ZM37.5067 9.64269L35.5067 11.6427C34.9209 12.2285 33.9712 12.2285 33.3854 11.6427C32.7996 11.0569 32.7996 10.1072 33.3854 9.52137L35.3854 7.52137C35.9712 6.93558 36.9209 6.93558 37.5067 7.52137C38.0925 8.10716 38.0925 9.05691 37.5067 9.64269ZM13.5067 7.52137C12.9209 6.93558 11.9712 6.93558 11.3854 7.52137C10.7996 8.10716 10.7996 9.05691 11.3854 9.64269L13.3854 11.6427C13.9712 12.2285 14.9209 12.2285 15.5067 11.6427C16.0925 11.0569 16.0925 10.1072 15.5067 9.52137L13.5067 7.52137Z" fill="#808080"/>
</svg>
