<svg width="56" height="55" viewBox="0 0 56 55" fill="none" xmlns="http://www.w3.org/2000/svg">
<ellipse cx="28" cy="27.2573" rx="28" ry="27.2573" fill="#D9F2E7"/>
<path fill-rule="evenodd" clip-rule="evenodd" d="M15 25.668C15 22.9065 17.2386 20.668 20 20.668H36C38.7614 20.668 41 22.9065 41 25.668V36.3346C41 39.0961 38.7614 41.3346 36 41.3346H20C17.2386 41.3346 15 39.0961 15 36.3346V25.668ZM20 22.668C18.3431 22.668 17 24.0111 17 25.668V36.3346C17 37.9915 18.3431 39.3346 20 39.3346H36C37.6569 39.3346 39 37.9915 39 36.3346V25.668C39 24.0111 37.6569 22.668 36 22.668H20Z" fill="#56C596"/>
<path d="M37.3327 36.3333C37.3327 35.597 36.7357 35 35.9993 35C35.263 35 34.666 35.597 34.666 36.3333C34.666 37.0697 35.263 37.6667 35.9993 37.6667C36.7357 37.6667 37.3327 37.0697 37.3327 36.3333Z" fill="#56C596"/>
<path d="M21.3327 25.6654C21.3327 24.929 20.7357 24.332 19.9993 24.332C19.263 24.332 18.666 24.929 18.666 25.6654C18.666 26.4017 19.263 26.9987 19.9993 26.9987C20.7357 26.9987 21.3327 26.4017 21.3327 25.6654Z" fill="#56C596"/>
<path fill-rule="evenodd" clip-rule="evenodd" d="M24.334 30.9987C24.334 28.9737 25.9756 27.332 28.0007 27.332C30.0257 27.332 31.6673 28.9737 31.6673 30.9987C31.6673 33.0237 30.0257 34.6654 28.0007 34.6654C25.9756 34.6654 24.334 33.0237 24.334 30.9987ZM28.0007 29.332C27.0802 29.332 26.334 30.0782 26.334 30.9987C26.334 31.9192 27.0802 32.6654 28.0007 32.6654C28.9211 32.6654 29.6673 31.9192 29.6673 30.9987C29.6673 30.0782 28.9211 29.332 28.0007 29.332Z" fill="#56C596"/>
<path fill-rule="evenodd" clip-rule="evenodd" d="M26.9993 15.5299L26.0398 16.4895C25.6493 16.88 25.0161 16.88 24.6256 16.4895C24.2351 16.0989 24.2351 15.4658 24.6256 15.0752L26.3494 13.3514C27.2607 12.4402 28.738 12.4402 29.6493 13.3514L31.3731 15.0752C31.7636 15.4658 31.7636 16.0989 31.3731 16.4895C30.9826 16.88 30.3494 16.88 29.9589 16.4895L28.9993 15.5299V18.3346C28.9993 18.8869 28.5516 19.3346 27.9993 19.3346C27.4471 19.3346 26.9993 18.8869 26.9993 18.3346V15.5299Z" fill="#56C596"/>
</svg>
