<svg width="14" height="16" viewBox="0 0 14 16" fill="none" xmlns="http://www.w3.org/2000/svg">
<path fill-rule="evenodd" clip-rule="evenodd" d="M3.90234 2.16732C4.11999 1.39782 4.82748 0.833984 5.66667 0.833984H8.33333C9.17252 0.833984 9.88001 1.39782 10.0977 2.16732H10.3333C12.0822 2.16732 13.5 3.58508 13.5 5.33398V12.0007C13.5 13.7496 12.0822 15.1673 10.3333 15.1673H3.66667C1.91777 15.1673 0.5 13.7496 0.5 12.0007V5.33398C0.5 3.58508 1.91777 2.16732 3.66667 2.16732H3.90234ZM3.90234 3.16732H3.66667C2.47005 3.16732 1.5 4.13737 1.5 5.33398V12.0007C1.5 13.1973 2.47005 14.1673 3.66667 14.1673H10.3333C11.53 14.1673 12.5 13.1973 12.5 12.0007V5.33398C12.5 4.13737 11.53 3.16732 10.3333 3.16732H10.0977C9.88001 3.93682 9.17252 4.50065 8.33333 4.50065H5.66667C4.82748 4.50065 4.11999 3.93682 3.90234 3.16732ZM5.66667 1.83398C5.20643 1.83398 4.83333 2.20708 4.83333 2.66732C4.83333 3.12755 5.20643 3.50065 5.66667 3.50065H8.33333C8.79357 3.50065 9.16667 3.12755 9.16667 2.66732C9.16667 2.20708 8.79357 1.83398 8.33333 1.83398H5.66667ZM3.83333 6.66732C3.83333 6.39118 4.05719 6.16732 4.33333 6.16732H9.66667C9.94281 6.16732 10.1667 6.39118 10.1667 6.66732C10.1667 6.94346 9.94281 7.16732 9.66667 7.16732H4.33333C4.05719 7.16732 3.83333 6.94346 3.83333 6.66732ZM3.83333 9.33398C3.83333 9.05784 4.05719 8.83398 4.33333 8.83398H9.66667C9.94281 8.83398 10.1667 9.05784 10.1667 9.33398C10.1667 9.61013 9.94281 9.83398 9.66667 9.83398H4.33333C4.05719 9.83398 3.83333 9.61013 3.83333 9.33398ZM3.83333 12.0007C3.83333 11.7245 4.05719 11.5007 4.33333 11.5007H7C7.27614 11.5007 7.5 11.7245 7.5 12.0007C7.5 12.2768 7.27614 12.5007 7 12.5007H4.33333C4.05719 12.5007 3.83333 12.2768 3.83333 12.0007Z" fill="#808080"/>
</svg>
