<svg width="56" height="56" viewBox="0 0 56 56" fill="none" xmlns="http://www.w3.org/2000/svg">
<circle cx="28" cy="28" r="28" fill="#6DB624" fill-opacity="0.15"/>
<path d="M33.2974 24.6488C33.4137 24.6488 33.5253 24.6026 33.6075 24.5203C33.6897 24.4381 33.736 24.3265 33.736 24.2102V23.333H34.6132C34.8554 23.333 35.0518 23.1366 35.0518 22.8944C35.0518 22.6522 34.8554 22.4558 34.6132 22.4558H33.736V21.5786C33.736 21.3364 33.5396 21.14 33.2974 21.14C33.0552 21.14 32.8588 21.3364 32.8588 21.5786V22.4558H31.9816C31.7394 22.4558 31.543 22.6522 31.543 22.8944C31.543 23.1366 31.7394 23.333 31.9816 23.333H32.8588V24.2102C32.8588 24.3265 32.905 24.4381 32.9872 24.5203C33.0694 24.6026 33.1811 24.6488 33.2974 24.6488Z" fill="#6DB624"/>
<path d="M28.0345 18.07C27.7923 18.07 27.5959 18.2664 27.5959 18.5086V18.9472H27.1573C26.9151 18.9472 26.7188 19.1436 26.7188 19.3858C26.7188 19.628 26.9151 19.8244 27.1573 19.8244H27.5959V20.263C27.5959 20.5052 27.7923 20.7016 28.0345 20.7016C28.2767 20.7016 28.4731 20.5052 28.4731 20.263V19.8269H28.9117C29.1539 19.8269 29.3503 19.6307 29.3503 19.3883C29.3503 19.1461 29.1539 18.9497 28.9117 18.9497H28.4731V18.5086C28.4731 18.3923 28.4269 18.2807 28.3447 18.1985C28.2625 18.1162 28.1508 18.07 28.0345 18.07Z" fill="#6DB624"/>
<path d="M16.1925 21.1369C15.9503 21.1369 15.7539 21.3333 15.7539 21.5755C15.7539 21.8177 15.9503 22.0141 16.1925 22.0141H17.0697V22.8913C17.0697 23.1335 17.2661 23.3299 17.5083 23.3299C17.7505 23.3299 17.9469 23.1335 17.9469 22.8913V22.0176H18.8241C19.0663 22.0176 19.2627 21.8212 19.2627 21.579C19.2627 21.3368 19.0663 21.1404 18.8241 21.1404H17.9469V20.2632C17.9469 20.021 17.7505 19.8246 17.5083 19.8246C17.2661 19.8246 17.0697 20.021 17.0697 20.2632V21.1404H16.1925V21.1369Z" fill="#6DB624"/>
<path d="M41.1929 32.1053H37.2455C37.0129 32.1053 36.7896 32.1978 36.6252 32.3622C36.4607 32.5267 36.3683 32.7499 36.3683 32.9825V33.4211H35.605C35.3505 33.4252 35.0987 33.3679 34.8709 33.2541C34.698 33.1664 34.5201 33.0826 34.3489 33.0097C34.1547 32.9263 33.9481 32.8523 33.7349 32.7838V30.351C33.7349 30.1183 33.6425 29.8951 33.478 29.7306C33.3135 29.5662 33.0903 29.4738 32.8577 29.4738H14.8772C14.6446 29.4738 14.4214 29.5662 14.2569 29.7306C14.0924 29.8951 14 30.1183 14 30.351V36.4913C14.0002 36.7682 14.1318 37.0286 14.3544 37.1931C14.1243 37.4958 13.9998 37.8655 14 38.2457C14.0008 38.4754 14.0881 38.6964 14.2448 38.8645C14.4014 39.0327 14.6156 39.1354 14.8447 39.1523L25.7726 39.9641C25.8693 39.9707 25.9662 39.9741 26.0629 39.9737V39.9739C26.3226 39.9741 26.5816 39.9494 26.8366 39.8996L32.7353 38.7186C32.8483 38.6951 32.9636 38.6835 33.0792 38.6843H36.3686V39.1229C36.3686 39.3555 36.4611 39.5788 36.6255 39.7432C36.79 39.9077 37.0132 40.0001 37.2458 40.0001H41.1932C41.4258 40.0001 41.649 39.9077 41.8135 39.7432C41.978 39.5788 42.0704 39.3555 42.0704 39.1229V32.9826C42.0704 32.7499 41.978 32.5267 41.8135 32.3623C41.649 32.1978 41.4258 32.1054 41.1932 32.1054L41.1929 32.1053ZM32.8595 31.2281H29.3507C29.1085 31.2281 28.9121 31.4245 28.9121 31.6667C28.9121 31.9089 29.1085 32.1053 29.3507 32.1053H32.8595V32.5496C32.0091 32.3753 31.1353 32.3479 30.2757 32.4685L30.1905 32.4791L30.1907 32.4789C29.9458 32.5157 29.6957 32.4979 29.4586 32.4264L26.7192 31.6084V30.351H32.8595L32.8595 31.2281ZM25.8419 31.3699C25.5292 31.3166 25.2099 31.3166 24.8972 31.3699C24.2493 31.4746 23.6554 31.794 23.2104 32.2765V30.3509H24.5261V30.7895C24.5261 31.0317 24.7225 31.2281 24.9647 31.2281C25.2069 31.2281 25.4033 31.0317 25.4033 30.7895V30.3509H25.8419V31.3699ZM27.7311 35.1485L26.7191 35.5289V34.7808L27.7311 35.1485ZM25.8419 35.8593L25.4217 36.0171C25.4151 36.0192 25.41 36.0228 25.4033 36.0249V34.737C25.4033 34.4947 25.2069 34.2984 24.9647 34.2984C24.7225 34.2984 24.5261 34.4947 24.5261 34.737V36.3835C24.2653 36.4516 23.9973 36.4878 23.7278 36.4914H23.2104V33.4838C23.2192 33.4891 23.2256 33.497 23.2348 33.5022C23.2548 33.5132 23.2754 33.5226 23.2967 33.5304L25.8419 34.4593L25.8419 35.8593ZM21.8946 30.351H22.3332V36.4914H21.8946V30.351ZM21.0174 36.4914H14.877V35.6142H21.0174V36.4914ZM21.0174 34.737H14.877V33.8598H21.0174V34.737ZM21.0174 32.9826H14.877V32.1054H21.0174V32.9826ZM21.0174 30.351V31.2282H14.877V30.351H21.0174ZM33.0785 37.8072C32.9037 37.8068 32.7292 37.8242 32.5579 37.8594L26.6646 39.0393V39.0391C26.3913 39.0918 26.1123 39.1087 25.8345 39.0893L14.9071 38.2778C14.8899 38.2773 14.8762 38.263 14.8764 38.2457C14.875 37.9843 14.9923 37.7365 15.1951 37.5716C15.3508 37.439 15.5492 37.367 15.7536 37.3685H23.727C24.198 37.3644 24.6647 37.2806 25.1079 37.1207L25.1329 37.1111H25.1361H25.1359C25.2471 37.0729 25.355 37.0257 25.4587 36.9703C25.5429 36.9205 25.6308 36.8777 25.7219 36.8418L28.3057 35.8695C28.4484 35.8176 28.5726 35.7246 28.6623 35.6018C28.7517 35.4793 28.8029 35.3326 28.8087 35.1809C28.8138 35.0223 28.7703 34.8658 28.6842 34.7325C28.5978 34.5993 28.4731 34.4956 28.3263 34.4352L23.9025 32.8177C24.2109 32.5068 24.6103 32.3024 25.0429 32.2344C25.4057 32.1704 25.7792 32.2082 26.1219 32.3435C26.1333 32.3478 26.1446 32.3519 26.157 32.3552L26.1806 32.363L29.2113 33.2678V33.268C29.5676 33.3753 29.9432 33.4024 30.3113 33.3475L30.3906 33.3383H30.3908C31.3236 33.2095 32.2728 33.2741 33.1798 33.5277C33.461 33.6054 33.7368 33.7021 34.0051 33.8167C34.1618 33.8825 34.3182 33.9571 34.4696 34.036H34.4698C34.8214 34.214 35.2107 34.3042 35.6048 34.2991H36.3675V37.8079L33.0785 37.8072ZM41.1929 39.1229H37.2455V32.9826H41.1929V39.1229Z" fill="#6DB624"/>
<path d="M31.5443 26.4032C31.5443 26.161 31.3479 25.9646 31.1057 25.9646C30.8635 25.9646 30.6671 26.161 30.6671 26.4032C30.4249 26.4032 30.2285 26.5996 30.2285 26.8418C30.2285 27.084 30.4249 27.2804 30.6671 27.2804C30.6671 27.5226 30.8635 27.719 31.1057 27.719C31.3479 27.719 31.5443 27.5226 31.5443 27.2804C31.7865 27.2804 31.9829 27.084 31.9829 26.8418C31.9829 26.5996 31.7865 26.4032 31.5443 26.4032Z" fill="#6DB624"/>
<path d="M21.018 20.7017H22.7724C22.8887 20.7017 23.0003 20.6555 23.0825 20.5732C23.1648 20.491 23.211 20.3794 23.211 20.2631V18.0701H24.0882C24.2656 18.0701 24.4254 17.9632 24.4933 17.7993C24.5612 17.6354 24.5237 17.4469 24.3983 17.3213L22.2054 15.1283C22.034 14.9572 21.7564 14.9572 21.585 15.1283L19.3921 17.3213C19.2667 17.4468 19.2292 17.6354 19.2971 17.7993C19.365 17.9632 19.5248 18.0701 19.7022 18.0701H20.5794V20.2631C20.5794 20.3794 20.6256 20.491 20.7079 20.5732C20.7901 20.6555 20.9017 20.7017 21.018 20.7017ZM21.8952 16.0586L23.0295 17.1929H22.7724C22.5302 17.1929 22.3338 17.3893 22.3338 17.6315V19.8245H21.4566V17.6315C21.4566 17.5152 21.4104 17.4036 21.3282 17.3213C21.2459 17.2391 21.1343 17.1929 21.018 17.1929H20.7609L21.8952 16.0586Z" fill="#6DB624"/>
<path d="M26.2817 28.1572H28.0361C28.1524 28.1572 28.264 28.111 28.3462 28.0287C28.4285 27.9465 28.4747 27.8349 28.4747 27.7186V25.5256H29.3519C29.5293 25.5256 29.689 25.4187 29.757 25.2548C29.8249 25.0909 29.7873 24.9024 29.662 24.7768L27.469 22.5839C27.2977 22.4127 27.0201 22.4127 26.8487 22.5839L24.6557 24.7768C24.5304 24.9024 24.4928 25.0909 24.5608 25.2548C24.6287 25.4187 24.7885 25.5256 24.9659 25.5256H25.8431V27.7186C25.8431 27.8349 25.8893 27.9465 25.9715 28.0287C26.0538 28.111 26.1654 28.1572 26.2817 28.1572ZM27.1589 23.5141L28.2932 24.6484H28.0361C27.7939 24.6484 27.5975 24.8448 27.5975 25.087V27.28H26.7203V25.087C26.7203 24.9707 26.6741 24.8591 26.5918 24.7768C26.5096 24.6946 26.398 24.6484 26.2817 24.6484H26.0246L27.1589 23.5141Z" fill="#6DB624"/>
</svg>
