<svg width="22" height="22" viewBox="0 0 22 22" fill="none" xmlns="http://www.w3.org/2000/svg">
<path fill-rule="evenodd" clip-rule="evenodd" d="M1 0.25C1.41421 0.25 1.75 0.585786 1.75 1V17C1.75 18.7949 3.20507 20.25 5 20.25H21C21.4142 20.25 21.75 20.5858 21.75 21C21.75 21.4142 21.4142 21.75 21 21.75H5C2.37665 21.75 0.25 19.6234 0.25 17V1C0.25 0.585786 0.585786 0.25 1 0.25ZM10.75 11C10.75 10.5858 10.4142 10.25 10 10.25C9.58579 10.25 9.25 10.5858 9.25 11V16C9.25 16.4142 9.58579 16.75 10 16.75C10.4142 16.75 10.75 16.4142 10.75 16V11ZM6.75 13C6.75 12.5858 6.41421 12.25 6 12.25C5.58579 12.25 5.25 12.5858 5.25 13V16C5.25 16.4142 5.58579 16.75 6 16.75C6.41421 16.75 6.75 16.4142 6.75 16V13ZM14 12.25C14.4142 12.25 14.75 12.5858 14.75 13V16C14.75 16.4142 14.4142 16.75 14 16.75C13.5858 16.75 13.25 16.4142 13.25 16V13C13.25 12.5858 13.5858 12.25 14 12.25ZM18.75 16V11C18.75 10.5858 18.4142 10.25 18 10.25C17.5858 10.25 17.25 10.5858 17.25 11V16C17.25 16.4142 17.5858 16.75 18 16.75C18.4142 16.75 18.75 16.4142 18.75 16ZM18.5303 5.53033C18.8232 5.23744 18.8232 4.76256 18.5303 4.46967C18.2374 4.17678 17.7626 4.17678 17.4697 4.46967L14.8839 7.05546C14.3957 7.54361 13.6043 7.54361 13.1161 7.05546L11.9445 5.88388C10.8706 4.80994 9.1294 4.80994 8.05546 5.88388L5.46967 8.46967C5.17678 8.76256 5.17678 9.23744 5.46967 9.53033C5.76256 9.82322 6.23744 9.82322 6.53033 9.53033L9.11612 6.94454C9.60427 6.45639 10.3957 6.45639 10.8839 6.94454L12.0555 8.11612C13.1294 9.19006 14.8706 9.19006 15.9445 8.11612L18.5303 5.53033Z" fill="#4D4D4D"/>
</svg>
