<svg width="25" height="25" viewBox="0 0 25 25" fill="none" xmlns="http://www.w3.org/2000/svg">
<path fill-rule="evenodd" clip-rule="evenodd" d="M1.58203 7.08203C1.58203 4.45868 3.70868 2.33203 6.33203 2.33203H18.332C20.9554 2.33203 23.082 4.45868 23.082 7.08203V17.082C23.082 19.7054 20.9554 21.832 18.332 21.832H6.33203C3.70868 21.832 1.58203 19.7054 1.58203 17.082V7.08203ZM6.33203 3.83203C4.53711 3.83203 3.08203 5.28711 3.08203 7.08203V17.082C3.08203 18.877 4.53711 20.332 6.33203 20.332H18.332C20.127 20.332 21.582 18.877 21.582 17.082V7.08203C21.582 5.28711 20.127 3.83203 18.332 3.83203H6.33203ZM5.70799 7.66601C5.93776 7.32136 6.40341 7.22823 6.74806 7.45799L10.5293 9.97879C11.6209 10.7066 13.0431 10.7066 14.1348 9.97879L17.916 7.45799C18.2607 7.22823 18.7263 7.32136 18.9561 7.66601C19.1858 8.01065 19.0927 8.4763 18.7481 8.70607L14.9669 11.2269C13.3713 12.2906 11.2927 12.2906 9.69721 11.2269L5.91601 8.70607C5.57136 8.4763 5.47823 8.01065 5.70799 7.66601Z" fill="#808080"/>
</svg>
