<svg width="14" height="14" viewBox="0 0 14 14" fill="none" xmlns="http://www.w3.org/2000/svg">
<path fill-rule="evenodd" clip-rule="evenodd" d="M2.33333 1.5C1.8731 1.5 1.5 1.8731 1.5 2.33333C1.5 7.94823 6.05177 12.5 11.6667 12.5C12.1269 12.5 12.5 12.1269 12.5 11.6667V10.5694C12.5 10.2286 12.2925 9.9222 11.9762 9.79565L10.6201 9.25321C10.2177 9.09225 9.75904 9.26661 9.56522 9.65426L9.44721 9.89027C9.34638 10.0919 9.12304 10.2012 8.90194 10.157L9 9.66667C8.90194 10.157 8.9021 10.157 8.90194 10.157L8.90128 10.1568L8.90045 10.1567L8.89835 10.1562L8.89233 10.155L8.87316 10.1508C8.85728 10.1473 8.83527 10.1423 8.80761 10.1356C8.75231 10.1221 8.67433 10.1019 8.57767 10.0734C8.38456 10.0166 8.11557 9.92685 7.80304 9.79291C7.18028 9.52601 6.37073 9.07783 5.64645 8.35355C4.92217 7.62927 4.47399 6.81972 4.20709 6.19696C4.07315 5.88443 3.98336 5.61544 3.92657 5.42233C3.89814 5.32567 3.87788 5.24769 3.86443 5.19239C3.8577 5.16473 3.85267 5.14272 3.84916 5.12684L3.84502 5.10767L3.84377 5.10165L3.84334 5.09955L3.84318 5.09872C3.84314 5.09856 3.84304 5.09806 4.33333 5L3.84304 5.09806C3.79882 4.87696 3.90806 4.65362 4.10973 4.55279L4.34574 4.43478C4.73339 4.24096 4.90775 3.78234 4.74679 3.37993L4.20435 2.02384C4.0778 1.70746 3.77138 1.5 3.43062 1.5H2.33333ZM4.92215 5.25806C5.68368 4.7982 6.01097 3.84781 5.67527 3.00854L5.13283 1.65245C4.85441 0.956411 4.18028 0.5 3.43062 0.5H2.33333C1.32081 0.5 0.5 1.32081 0.5 2.33333C0.5 8.50051 5.49949 13.5 11.6667 13.5C12.6792 13.5 13.5 12.6792 13.5 11.6667V10.5694C13.5 9.81972 13.0436 9.14559 12.3475 8.86717L10.9915 8.32473C10.1522 7.98903 9.20181 8.31632 8.74194 9.07785C8.59373 9.03045 8.40735 8.96393 8.19696 8.87376C7.65306 8.64066 6.96261 8.2555 6.35355 7.64645C5.7445 7.03739 5.35934 6.34694 5.12624 5.80304C5.03607 5.59265 4.96955 5.40627 4.92215 5.25806Z" fill="#808080"/>
</svg>
