<svg width="16" height="14" viewBox="0 0 16 14" fill="none" xmlns="http://www.w3.org/2000/svg">
<path fill-rule="evenodd" clip-rule="evenodd" d="M0.833984 3.66667C0.833984 1.91777 2.25175 0.5 4.00065 0.5H12.0007C13.7496 0.5 15.1673 1.91777 15.1673 3.66667V10.3333C15.1673 12.0822 13.7496 13.5 12.0007 13.5H4.00065C2.25175 13.5 0.833984 12.0822 0.833984 10.3333V3.66667ZM4.00065 1.5C2.80403 1.5 1.83398 2.47005 1.83398 3.66667V10.3333C1.83398 11.53 2.80403 12.5 4.00065 12.5H12.0007C13.1973 12.5 14.1673 11.53 14.1673 10.3333V3.66667C14.1673 2.47005 13.1973 1.5 12.0007 1.5H4.00065ZM3.58463 4.05598C3.7378 3.82622 4.04824 3.76413 4.278 3.91731L6.7988 5.59784C7.52658 6.08303 8.47472 6.08303 9.2025 5.59784L11.7233 3.91731C11.9531 3.76413 12.2635 3.82622 12.4167 4.05598C12.5699 4.28575 12.5078 4.59618 12.278 4.74936L9.7572 6.42989C8.69352 7.13901 7.30778 7.13901 6.2441 6.42989L3.7233 4.74936C3.49354 4.59618 3.43145 4.28575 3.58463 4.05598Z" fill="#808080"/>
</svg>
