<svg width="32" height="32" viewBox="0 0 32 32" fill="none" xmlns="http://www.w3.org/2000/svg">
<path fill-rule="evenodd" clip-rule="evenodd" d="M6.3125 9.26316C6.3125 8.56554 6.87804 8 7.57566 8H15.9967C16.6943 8 17.2599 8.56554 17.2599 9.26316C17.2599 9.96078 16.6943 10.5263 15.9967 10.5263H7.57566C6.87804 10.5263 6.3125 9.96078 6.3125 9.26316ZM6.3125 16C6.3125 15.3024 6.87804 14.7368 7.57566 14.7368H24.4178C25.1154 14.7368 25.6809 15.3024 25.6809 16C25.6809 16.6976 25.1154 17.2632 24.4178 17.2632H7.57566C6.87804 17.2632 6.3125 16.6976 6.3125 16ZM14.7336 22.7368C14.7336 22.0392 15.2991 21.4737 15.9967 21.4737H24.4178C25.1154 21.4737 25.6809 22.0392 25.6809 22.7368C25.6809 23.4345 25.1154 24 24.4178 24H15.9967C15.2991 24 14.7336 23.4345 14.7336 22.7368Z" fill="#4D4D4D"/>
</svg>
