<svg width="59" height="59" viewBox="0 0 59 59" fill="none" xmlns="http://www.w3.org/2000/svg">
<circle cx="29.5" cy="29.5" r="29.5" fill="#ECF8F3"/>
<path d="M18.3901 47C15.8075 47 13.3804 45.6309 12.0735 43.4061C11.3734 42.2859 11 40.9634 11 39.6099C11 35.5336 14.3139 32.2198 18.3901 32.2198C22.4664 32.2198 25.7802 35.5336 25.7802 39.6099C25.7802 40.9634 25.4068 42.2859 24.7067 43.4216C23.3998 45.6309 20.9728 47 18.3901 47ZM18.3901 34.5535C15.6052 34.5535 13.3337 36.825 13.3337 39.6099C13.3337 40.5278 13.5827 41.4302 14.065 42.2081C14.9829 43.7639 16.6009 44.6663 18.3901 44.6663C20.1793 44.6663 21.7974 43.7484 22.7153 42.2236C23.1976 41.4302 23.4465 40.5434 23.4465 39.6099C23.4465 36.825 21.175 34.5535 18.3901 34.5535Z" fill="#56C596"/>
<path d="M17.5017 42.3186C17.2061 42.3186 16.9105 42.2097 16.6772 41.9763L15.1369 40.436C14.9203 40.2162 14.7988 39.92 14.7988 39.6114C14.7988 39.3028 14.9203 39.0066 15.1369 38.7869C15.5881 38.3357 16.3349 38.3357 16.7861 38.7869L17.5329 39.5336L20.0222 37.231C20.4889 36.7954 21.2357 36.8265 21.6713 37.2933C22.107 37.76 22.0758 38.5068 21.6091 38.9424L18.2952 42.0074C18.0618 42.2096 17.7818 42.3186 17.5017 42.3186ZM20.2446 22.2019C19.8713 22.2019 19.529 22.0307 19.2956 21.7196C19.1674 21.5466 19.0906 21.3409 19.0741 21.1263C19.0576 20.9116 19.102 20.6966 19.2023 20.506C19.4667 19.9771 19.8401 19.4636 20.3224 18.9969L25.3788 13.9249C26.6255 12.6917 28.3083 12 30.0618 12C31.8154 12 33.4982 12.6917 34.7448 13.9249L37.4675 16.6943C38.6188 17.83 39.3189 19.3547 39.3967 20.9728C39.4054 21.1468 39.3751 21.3205 39.3081 21.4813C39.241 21.6421 39.1389 21.7859 39.0092 21.9022C38.8795 22.0185 38.7255 22.1043 38.5583 22.1535C38.3912 22.2027 38.2152 22.2139 38.0432 22.1863C37.732 22.1396 37.4053 22.1241 37.063 22.1241H21.5049C21.1315 22.1241 20.7736 22.1552 20.4158 22.2019H20.2446ZM22.8429 19.7748H36.783C36.5807 19.2458 36.254 18.7635 35.8184 18.3279L33.0801 15.5585C31.4154 13.9094 28.6927 13.9094 27.0124 15.5585L22.8429 19.7748Z" fill="#56C596"/>
<path d="M37.0599 45.4442H22.4819C21.9841 45.4442 21.5484 45.133 21.3773 44.6818C21.2061 44.2151 21.3462 43.7017 21.7196 43.3905C22.093 43.0793 22.4352 42.6748 22.6842 42.2392C23.182 41.4457 23.431 40.5434 23.431 39.6254C23.431 36.8405 21.1595 34.569 18.3746 34.569C16.9277 34.569 15.543 35.1914 14.5784 36.296C14.2517 36.6538 13.7382 36.7939 13.287 36.6227C13.0651 36.5391 12.8736 36.3904 12.7375 36.196C12.6015 36.0017 12.5273 35.7708 12.5247 35.5336V28.7192C12.5247 23.9273 15.4807 20.4578 20.0704 19.8822C20.4905 19.8199 20.9728 19.7732 21.4706 19.7732H37.0288C37.4022 19.7732 37.8845 19.7888 38.3823 19.8666C42.972 20.3956 45.9747 23.8806 45.9747 28.7192V36.4983C46.0058 41.8503 42.4119 45.4442 37.0599 45.4442ZM24.8934 43.1105H37.0599C41.0739 43.1105 43.6721 40.5123 43.6721 36.4983V28.7192C43.6721 25.0786 41.5406 22.5737 38.0867 22.1692C37.7133 22.107 37.3866 22.107 37.0599 22.107H21.5017C21.1284 22.107 20.7705 22.1381 20.4127 22.1848C16.9899 22.6204 14.8895 25.1097 14.8895 28.7192V33.1066C15.9475 32.5309 17.161 32.2198 18.3901 32.2198C22.4664 32.2198 25.7802 35.5336 25.7802 39.6099C25.7802 40.839 25.4691 42.0525 24.8934 43.1105Z" fill="#56C596"/>
<path d="M44.839 36.8872H40.1715C37.8067 36.8872 35.893 34.9736 35.893 32.6087C35.893 30.2439 37.8067 28.3302 40.1715 28.3302H44.839C45.4769 28.3302 46.0058 28.8592 46.0058 29.4971C46.0058 30.135 45.4769 30.6639 44.839 30.6639H40.1715C39.6557 30.6639 39.1611 30.8688 38.7964 31.2336C38.4317 31.5983 38.2268 32.0929 38.2268 32.6087C38.2268 33.1245 38.4317 33.6192 38.7964 33.9839C39.1611 34.3486 39.6557 34.5535 40.1715 34.5535H44.839C45.4769 34.5535 46.0058 35.0825 46.0058 35.7203C46.0058 36.3582 45.4769 36.8872 44.839 36.8872Z" fill="#56C596"/>
</svg>
