<svg width="56" height="56" viewBox="0 0 56 56" fill="none" xmlns="http://www.w3.org/2000/svg">
<ellipse cx="28" cy="27.7729" rx="28" ry="27.2573" fill="#D9F2E7"/>
<path fill-rule="evenodd" clip-rule="evenodd" d="M13.666 22.1836C13.666 21.6313 14.1137 21.1836 14.666 21.1836H17.3327C17.4706 21.1836 17.6071 21.2121 17.7335 21.2674L26.0832 24.9204C27.8689 25.7017 28.6901 27.7772 27.9223 29.5687C27.1503 31.3699 25.0645 32.2042 23.2633 31.4323L20.9388 30.4361C20.4311 30.2185 20.196 29.6306 20.4135 29.123C20.6311 28.6154 21.219 28.3802 21.7266 28.5978L24.0512 29.594C24.837 29.9308 25.7472 29.5668 26.084 28.7809C26.419 27.9992 26.0607 27.0936 25.2815 26.7527L17.1235 23.1836H14.666C14.1137 23.1836 13.666 22.7359 13.666 22.1836Z" fill="#56C596"/>
<path fill-rule="evenodd" clip-rule="evenodd" d="M26.219 28.8398L30.7576 31.1091C31.7296 31.5951 32.8014 31.8482 33.8881 31.8482H35.9996C38.0246 31.8482 39.6662 33.4898 39.6662 35.5148C39.6662 37.5399 38.0246 39.1815 35.9996 39.1815H25.1843C23.3731 39.1815 21.5868 38.7598 19.9668 37.9498L14.219 35.0759C13.725 34.8289 13.5248 34.2282 13.7718 33.7343C14.0188 33.2403 14.6195 33.0401 15.1134 33.2871L20.8612 36.1609C22.2035 36.8321 23.6836 37.1815 25.1843 37.1815H35.9996C36.92 37.1815 37.6662 36.4353 37.6662 35.5148C37.6662 34.5943 36.92 33.8482 35.9996 33.8482H33.8881C32.4909 33.8482 31.1129 33.5228 29.8632 32.898L25.3246 30.6287L26.219 28.8398Z" fill="#56C596"/>
<path fill-rule="evenodd" clip-rule="evenodd" d="M35.9993 17.8477C33.6061 17.8477 31.666 19.7878 31.666 22.181C31.666 24.5742 33.6061 26.5143 35.9993 26.5143C38.3926 26.5143 40.3327 24.5742 40.3327 22.181C40.3327 19.7878 38.3926 17.8477 35.9993 17.8477ZM29.666 22.181C29.666 18.6832 32.5015 15.8477 35.9993 15.8477C39.4972 15.8477 42.3327 18.6832 42.3327 22.181C42.3327 25.6788 39.4972 28.5143 35.9993 28.5143C32.5015 28.5143 29.666 25.6788 29.666 22.181Z" fill="#56C596"/>
</svg>
