<svg width="90" height="90" viewBox="0 0 90 90" fill="none" xmlns="http://www.w3.org/2000/svg">
<path d="M65.2485 9.91695C66.2047 10.47 67.4281 10.1433 67.9812 9.18719C68.5343 8.23107 68.2076 7.00762 67.2514 6.45453L65.2485 9.91695ZM86.6976 29.4249C86.311 28.3902 85.1588 27.8649 84.1241 28.2515C83.0894 28.6382 82.564 29.7904 82.9507 30.8251L86.6976 29.4249ZM24.9994 34.9383C24.1369 34.2482 22.8783 34.3881 22.1883 35.2506C21.4982 36.1131 21.6381 37.3717 22.5006 38.0617L24.9994 34.9383ZM38.7373 48.4898L37.4879 50.0516L38.7373 48.4898ZM50.3652 47.5387L48.8786 46.2007L50.3652 47.5387ZM84.7366 12.3379C85.4755 11.5169 85.4089 10.2523 84.5879 9.51341C83.7669 8.77449 82.5023 8.84105 81.7634 9.66207L84.7366 12.3379ZM85.5 45C85.5 67.3675 67.3675 85.5 45 85.5V89.5C69.5767 89.5 89.5 69.5767 89.5 45H85.5ZM45 85.5C22.6325 85.5 4.5 67.3675 4.5 45H0.5C0.5 69.5767 20.4233 89.5 45 89.5V85.5ZM4.5 45C4.5 22.6325 22.6325 4.5 45 4.5V0.5C20.4233 0.5 0.5 20.4233 0.5 45H4.5ZM45 4.5C52.3801 4.5 59.2936 6.47219 65.2485 9.91695L67.2514 6.45453C60.704 2.66707 53.1021 0.5 45 0.5V4.5ZM82.9507 30.8251C84.5983 35.2342 85.5 40.0095 85.5 45H89.5C89.5 39.5242 88.51 34.2751 86.6976 29.4249L82.9507 30.8251ZM22.5006 38.0617L37.4879 50.0516L39.9867 46.9281L24.9994 34.9383L22.5006 38.0617ZM51.8518 48.8766L84.7366 12.3379L81.7634 9.66207L48.8786 46.2007L51.8518 48.8766ZM37.4879 50.0516C41.8313 53.5263 48.1308 53.011 51.8518 48.8766L48.8786 46.2007C46.5752 48.7601 42.6755 49.0791 39.9867 46.9281L37.4879 50.0516Z" fill="#37CB75"/>
</svg>
