<svg width="49" height="49" viewBox="0 0 49 49" fill="none" xmlns="http://www.w3.org/2000/svg">
<path fill-rule="evenodd" clip-rule="evenodd" d="M6.44531 10.6867C6.44531 8.1436 8.50689 6.08203 11.05 6.08203H21.0965C23.6396 6.08203 25.7011 8.1436 25.7011 10.6867V17.3844C25.7011 19.9274 23.6396 21.989 21.0965 21.989H11.05C8.50688 21.989 6.44531 19.9274 6.44531 17.3844V10.6867ZM11.05 8.59366C9.89402 8.59366 8.95694 9.53074 8.95694 10.6867V17.3844C8.95694 18.5403 9.89402 19.4774 11.05 19.4774H21.0965C22.2524 19.4774 23.1895 18.5403 23.1895 17.3844V10.6867C23.1895 9.53074 22.2524 8.59366 21.0965 8.59366H11.05Z" fill="#808080"/>
<path fill-rule="evenodd" clip-rule="evenodd" d="M23.1895 30.7797C23.1895 28.2366 25.2511 26.1751 27.7941 26.1751H37.8407C40.3837 26.1751 42.4453 28.2366 42.4453 30.7797V37.4774C42.4453 40.0205 40.3837 42.082 37.8407 42.082H27.7941C25.2511 42.082 23.1895 40.0205 23.1895 37.4774V30.7797ZM27.7941 28.6867C26.6382 28.6867 25.7011 29.6238 25.7011 30.7797V37.4774C25.7011 38.6333 26.6382 39.5704 27.7941 39.5704H37.8407C38.9966 39.5704 39.9337 38.6333 39.9337 37.4774V30.7797C39.9337 29.6238 38.9966 28.6867 37.8407 28.6867H27.7941Z" fill="#808080"/>
<path fill-rule="evenodd" clip-rule="evenodd" d="M38.8513 15.2913L37.6462 16.4964C37.1558 16.9868 37.1558 17.7819 37.6462 18.2724C38.1367 18.7628 38.9318 18.7628 39.4222 18.2724L41.5871 16.1075C42.7314 14.9632 42.7314 13.1079 41.5871 11.9635L39.4222 9.79869C38.9318 9.30826 38.1367 9.30826 37.6462 9.79869C37.1558 10.2891 37.1558 11.0843 37.6462 11.5747L38.8513 12.7797H31.143C30.4494 12.7797 29.8872 13.342 29.8872 14.0355C29.8872 14.7291 30.4494 15.2913 31.143 15.2913H38.8513Z" fill="#808080"/>
<path fill-rule="evenodd" clip-rule="evenodd" d="M10.0394 35.3844L11.2444 36.5894C11.7348 37.0798 11.7348 37.8749 11.2444 38.3654C10.754 38.8558 9.95883 38.8558 9.4684 38.3654L7.30356 36.2005C6.15923 35.0562 6.15923 33.2009 7.30356 32.0566L9.4684 29.8917C9.95883 29.4013 10.754 29.4013 11.2444 29.8917C11.7348 30.3821 11.7348 31.1773 11.2444 31.6677L10.0394 32.8727H17.7476C18.4412 32.8727 19.0035 33.435 19.0035 34.1285C19.0035 34.8221 18.4412 35.3844 17.7476 35.3844H10.0394Z" fill="#808080"/>
</svg>
