<svg width="24" height="24" viewBox="0 0 24 24" fill="none" xmlns="http://www.w3.org/2000/svg">
<path fill-rule="evenodd" clip-rule="evenodd" d="M1.25 4C1.25 2.48122 2.48122 1.25 4 1.25H10C11.5188 1.25 12.75 2.48122 12.75 4V8C12.75 9.51878 11.5188 10.75 10 10.75H4C2.48122 10.75 1.25 9.51878 1.25 8V4ZM4 2.75C3.30964 2.75 2.75 3.30964 2.75 4V8C2.75 8.69036 3.30964 9.25 4 9.25H10C10.6904 9.25 11.25 8.69036 11.25 8V4C11.25 3.30964 10.6904 2.75 10 2.75H4Z" fill="white"/>
<path fill-rule="evenodd" clip-rule="evenodd" d="M11.25 16C11.25 14.4812 12.4812 13.25 14 13.25H20C21.5188 13.25 22.75 14.4812 22.75 16V20C22.75 21.5188 21.5188 22.75 20 22.75H14C12.4812 22.75 11.25 21.5188 11.25 20V16ZM14 14.75C13.3096 14.75 12.75 15.3096 12.75 16V20C12.75 20.6904 13.3096 21.25 14 21.25H20C20.6904 21.25 21.25 20.6904 21.25 20V16C21.25 15.3096 20.6904 14.75 20 14.75H14Z" fill="white"/>
<path fill-rule="evenodd" clip-rule="evenodd" d="M20.6036 6.75L19.8839 7.46967C19.591 7.76256 19.591 8.23744 19.8839 8.53033C20.1768 8.82322 20.6517 8.82322 20.9445 8.53033L22.2374 7.23744C22.9209 6.55402 22.9209 5.44598 22.2374 4.76256L20.9445 3.46967C20.6517 3.17678 20.1768 3.17678 19.8839 3.46967C19.591 3.76256 19.591 4.23744 19.8839 4.53033L20.6036 5.25L16 5.25C15.5858 5.25 15.25 5.58579 15.25 6C15.25 6.41421 15.5858 6.75 16 6.75L20.6036 6.75Z" fill="white"/>
<path fill-rule="evenodd" clip-rule="evenodd" d="M3.39645 18.75L4.11612 19.4697C4.40901 19.7626 4.40901 20.2374 4.11612 20.5303C3.82322 20.8232 3.34835 20.8232 3.05546 20.5303L1.76256 19.2374C1.07915 18.554 1.07914 17.446 1.76256 16.7626L3.05546 15.4697C3.34835 15.1768 3.82322 15.1768 4.11612 15.4697C4.40901 15.7626 4.40901 16.2374 4.11612 16.5303L3.39645 17.25L8 17.25C8.41421 17.25 8.75 17.5858 8.75 18C8.75 18.4142 8.41421 18.75 8 18.75L3.39645 18.75Z" fill="white"/>
</svg>
