<svg width="120" height="120" viewBox="0 0 120 120" fill="none" xmlns="http://www.w3.org/2000/svg">
<circle cx="60" cy="60" r="60" fill="#F2FBEA"/>
<path fill-rule="evenodd" clip-rule="evenodd" d="M60.0004 34.7725C55.1051 34.7725 51.1367 38.7409 51.1367 43.6362V47.0453H68.864V43.6362C68.864 38.7409 64.8956 34.7725 60.0004 34.7725ZM72.9549 47.2058V43.6362C72.9549 36.4816 67.155 30.6816 60.0004 30.6816C52.8458 30.6816 47.0458 36.4816 47.0458 43.6362V47.2058C40.8631 48.1865 36.1367 53.5412 36.1367 59.9998V76.3635C36.1367 83.5181 41.9367 89.318 49.0913 89.318H70.9094C78.064 89.318 83.864 83.5181 83.864 76.3635V59.9998C83.864 53.5412 79.1376 48.1865 72.9549 47.2058ZM49.0913 51.1362C44.196 51.1362 40.2276 55.1046 40.2276 59.9998V76.3635C40.2276 81.2587 44.196 85.2271 49.0913 85.2271H70.9094C75.8047 85.2271 79.7731 81.2587 79.7731 76.3635V59.9998C79.7731 55.1046 75.8047 51.1362 70.9094 51.1362H49.0913ZM60.0004 63.4089C61.13 63.4089 62.0458 64.3247 62.0458 65.4544V70.9089C62.0458 72.0386 61.13 72.9544 60.0004 72.9544C58.8707 72.9544 57.9549 72.0386 57.9549 70.9089V65.4544C57.9549 64.3247 58.8707 63.4089 60.0004 63.4089Z" fill="#277252"/>
</svg>
