<svg width="24" height="24" viewBox="0 0 24 24" fill="none" xmlns="http://www.w3.org/2000/svg">
<path fill-rule="evenodd" clip-rule="evenodd" d="M6 3.75C4.20507 3.75 2.75 5.20507 2.75 7V17C2.75 18.7949 4.20507 20.25 6 20.25H18C19.7949 20.25 21.25 18.7949 21.25 17V10C21.25 8.20507 19.7949 6.75 18 6.75H15.3333C14.3056 6.75 13.3055 6.41665 12.4833 5.8L10.6167 4.4C10.0541 3.97808 9.36987 3.75 8.66667 3.75H6ZM1.25 7C1.25 4.37665 3.37665 2.25 6 2.25H8.66667C9.69443 2.25 10.6945 2.58334 11.5167 3.2L13.3833 4.6C13.9459 5.02192 14.6301 5.25 15.3333 5.25H18C20.6234 5.25 22.75 7.37665 22.75 10V17C22.75 19.6234 20.6234 21.75 18 21.75H6C3.37665 21.75 1.25 19.6234 1.25 17V7ZM11.25 11.8282C11.2033 11.8633 11.1586 11.9021 11.1161 11.9445L9.53033 13.5303C9.23744 13.8232 8.76256 13.8232 8.46967 13.5303C8.17678 13.2374 8.17678 12.7626 8.46967 12.4697L10.0555 10.8839C11.1294 9.80994 12.8706 9.80994 13.9445 10.8839L15.5303 12.4697C15.8232 12.7626 15.8232 13.2374 15.5303 13.5303C15.2374 13.8232 14.7626 13.8232 14.4697 13.5303L12.8839 11.9445C12.8414 11.9021 12.7967 11.8633 12.75 11.8282V16C12.75 16.4142 12.4142 16.75 12 16.75C11.5858 16.75 11.25 16.4142 11.25 16V11.8282Z" fill="#56C596"/>
</svg>
