<svg width="48" height="48" viewBox="0 0 48 48" fill="none" xmlns="http://www.w3.org/2000/svg">
<path fill-rule="evenodd" clip-rule="evenodd" d="M12 7.5C8.41015 7.5 5.5 10.4101 5.5 14V34C5.5 37.5899 8.41015 40.5 12 40.5H36C39.5899 40.5 42.5 37.5899 42.5 34V20C42.5 16.4101 39.5899 13.5 36 13.5H30.6667C28.6111 13.5 26.6111 12.8333 24.9667 11.6L21.2333 8.8C20.1082 7.95616 18.7397 7.5 17.3333 7.5H12ZM2.5 14C2.5 8.75329 6.75329 4.5 12 4.5H17.3333C19.3889 4.5 21.3889 5.16669 23.0333 6.4L26.7667 9.2C27.8918 10.0438 29.2603 10.5 30.6667 10.5H36C41.2467 10.5 45.5 14.7533 45.5 20V34C45.5 39.2467 41.2467 43.5 36 43.5H12C6.75329 43.5 2.5 39.2467 2.5 34V14ZM22.5 23.6565C22.4067 23.7266 22.3172 23.8042 22.2322 23.8891L19.0607 27.0607C18.4749 27.6464 17.5251 27.6464 16.9393 27.0607C16.3536 26.4749 16.3536 25.5251 16.9393 24.9393L20.1109 21.7678C22.2588 19.6199 25.7412 19.6199 27.8891 21.7678L31.0607 24.9393C31.6464 25.5251 31.6464 26.4749 31.0607 27.0607C30.4749 27.6464 29.5251 27.6464 28.9393 27.0607L25.7678 23.8891C25.6828 23.8042 25.5933 23.7266 25.5 23.6565V32C25.5 32.8284 24.8284 33.5 24 33.5C23.1716 33.5 22.5 32.8284 22.5 32V23.6565Z" fill="#56C596"/>
</svg>
