<svg width="40" height="41" viewBox="0 0 40 41" fill="none" xmlns="http://www.w3.org/2000/svg">
<circle cx="20" cy="20.5" r="20" fill="#ECF8F3"/>
<path fill-rule="evenodd" clip-rule="evenodd" d="M15.8322 22.9116C14.7601 23.4595 14.3548 24.0883 14.3548 24.5769C14.3548 25.0656 14.7601 25.6943 15.8322 26.2422C16.8638 26.7694 18.3364 27.1154 20 27.1154C21.6636 27.1154 23.1362 26.7694 24.1678 26.2422C25.2399 25.6943 25.6452 25.0656 25.6452 24.5769C25.6452 24.0883 25.2399 23.4595 24.1678 22.9116C23.1362 22.3845 21.6636 22.0385 20 22.0385C18.3364 22.0385 16.8638 22.3845 15.8322 22.9116ZM15.2263 21.6732C16.483 21.031 18.1717 20.6538 20 20.6538C21.8283 20.6538 23.517 21.031 24.7737 21.6732C25.9899 22.2947 27 23.2813 27 24.5769C27 25.8726 25.9899 26.8592 24.7737 27.4806C23.517 28.1228 21.8283 28.5 20 28.5C18.1717 28.5 16.483 28.1228 15.2263 27.4806C14.0101 26.8592 13 25.8726 13 24.5769C13 23.2813 14.0101 22.2947 15.2263 21.6732Z" fill="#56C596"/>
<path fill-rule="evenodd" clip-rule="evenodd" d="M20 11.8846C18.3788 11.8846 17.0645 13.2278 17.0645 14.8846C17.0645 16.5415 18.3788 17.8846 20 17.8846C21.6212 17.8846 22.9355 16.5415 22.9355 14.8846C22.9355 13.2278 21.6212 11.8846 20 11.8846ZM15.7097 14.8846C15.7097 12.4631 17.6305 10.5 20 10.5C22.3695 10.5 24.2903 12.4631 24.2903 14.8846C24.2903 17.3062 22.3695 19.2692 20 19.2692C17.6305 19.2692 15.7097 17.3062 15.7097 14.8846Z" fill="#56C596"/>
</svg>
