<svg width="56" height="56" viewBox="0 0 56 56" fill="none" xmlns="http://www.w3.org/2000/svg">
<circle cx="28" cy="28" r="28" fill="#6DB624" fill-opacity="0.15"/>
<path d="M41.0632 40.6088H24.5629C22.8061 40.6003 21.3733 39.1612 21.3733 37.4041V36.5885H12.2472C11.9759 36.5885 11.7559 36.3684 11.7559 36.0971V25.502C11.7559 25.2307 11.9759 25.0106 12.2472 25.0106H21.3733V24.1951C21.3733 22.4335 22.8168 20.9905 24.5779 20.9905H27.0318V15.8845C27.0318 15.6132 27.2519 15.3931 27.5231 15.3931H38.1183C38.3896 15.3931 38.6097 15.6132 38.6097 15.8845V20.9905H41.0635C42.8254 20.9905 44.2682 22.4328 44.2682 24.1951V37.4038C44.2682 39.1677 42.8274 40.6084 41.0635 40.6084L41.0632 40.6088ZM24.086 39.5705V27.5834C24.086 27.3122 24.3061 27.0921 24.5774 27.0921C24.8487 27.0921 25.0688 27.3122 25.0688 27.5834V39.6261H41.063C42.2844 39.6261 43.2847 38.6257 43.2847 37.4044V35.0156H35.2001C34.9288 35.0156 34.7088 34.7955 34.7088 34.5242V29.7362C34.7088 29.4649 34.9288 29.2448 35.2001 29.2448H43.2847V26.9582C42.84 26.3437 42.1276 25.9942 41.3716 25.9942H24.2692C23.5861 25.9942 22.9176 25.7856 22.3561 25.398V37.4049C22.3561 38.4427 23.0821 39.3414 24.0861 39.5713L24.086 39.5705ZM30.086 25.0103C30.6265 21.9857 35.0134 21.9857 35.5542 25.0103H36.3319V19.0595C35.6563 18.8814 35.1215 18.346 34.9431 17.6706H30.6972C30.5191 18.3462 29.9837 18.881 29.3083 19.0595V25.0103H30.086ZM31.0937 25.0103H34.5463C34.0549 23.2827 31.5851 23.2827 31.0937 25.0103ZM37.3148 18.6318V25.0103H37.6258V16.3757H28.0136V25.0103H28.3247V18.6318C28.3247 18.3605 28.5447 18.1404 28.816 18.1404C29.3458 18.1404 29.7773 17.7089 29.7773 17.1791C29.7773 16.9078 29.9974 16.6877 30.2687 16.6877H35.3699C35.6411 16.6877 35.8612 16.9078 35.8612 17.1791C35.8612 17.7089 36.2927 18.1404 36.8225 18.1404C37.0938 18.1404 37.3139 18.3605 37.3139 18.6318H37.3148ZM21.3726 33.5337C18.3481 32.9932 18.3481 28.6062 21.3726 28.0655V27.2877H15.4218C15.2438 27.9633 14.7083 28.4982 14.0329 28.6766V32.9225C14.7085 33.1005 15.2434 33.636 15.4218 34.3114H21.3726V33.5337ZM21.3726 32.526V29.0733C19.6451 29.5647 19.6451 32.0346 21.3726 32.526ZM14.9941 26.3049H21.3726V25.9938H12.7381V35.6061H21.3726V35.295H14.9941C14.7228 35.295 14.5027 35.0749 14.5027 34.8036C14.5027 34.2739 14.0712 33.8424 13.5415 33.8424C13.2702 33.8424 13.0501 33.6223 13.0501 33.351V28.2498C13.0501 27.9785 13.2702 27.7584 13.5415 27.7584C14.0712 27.7584 14.5027 27.327 14.5027 26.7972C14.5027 26.5259 14.7228 26.3058 14.9941 26.3058V26.3049ZM37.8472 31.0671C38.4339 31.0671 38.9099 31.5432 38.9099 32.1298C38.9099 32.7165 38.4339 33.1926 37.8472 33.1926C37.2605 33.1926 36.7845 32.7165 36.7845 32.1298C36.7845 31.5432 37.2605 31.0671 37.8472 31.0671ZM43.2848 30.2274H35.6917V34.0327H43.2848V30.2274ZM22.3607 24.0537C22.8054 24.6648 23.5162 25.011 24.2693 25.011H27.0315V21.9739H24.5776C23.4097 21.9739 22.4345 22.8893 22.3605 24.0534L22.3607 24.0537ZM38.6094 25.011H41.3716C42.0534 25.011 42.7246 25.2197 43.2848 25.6073V24.1956C43.2848 22.9742 42.2849 21.9738 41.0631 21.9738H38.6092V25.011L38.6094 25.011Z" fill="#6DB624"/>
</svg>
